<?xml version="1.0" encoding="UTF-8"?>
<svg id="a" data-name="レイヤー 1" xmlns="http://www.w3.org/2000/svg" viewBox="0 0 513 513">
  <defs>
    <style>
      .c, .d {
        stroke-width: 0px;
      }

      .d {
        fill: #ec1c24;
      }
    </style>
  </defs>
  <g id="b" data-name="favicon">
    <polygon class="d" points="42.06 118.08 92.13 218.21 8.06 314.57 42.06 118.08"/>
    <polygon class="c" points="184.71 161.53 164.87 118.08 96.85 118.08 138.42 204.99 184.71 161.53"/>
    <path class="c" d="m347.19,118.08h-122.8L58.12,314.57h66.13l43.45-51.96,23.62,51.96h114.3l15.11-86.91,14.17,48.18,41.56-50.07-29.28-107.69Zm-93.52,180.43l-37.79-80.3,66.13-80.3-28.34,160.59Z"/>
    <polygon class="c" points="451.1 118.08 339.63 287.17 395.36 287.17 437.87 221.05 421.81 314.57 477.55 314.57 504 166.26 504 166.26 512.5 118.08 451.1 118.08"/>
    <g>
      <polygon class="c" points="68.51 332.51 3.33 332.51 .5 347.63 24.12 347.63 11.84 409.03 10.89 409.98 28.84 409.98 42.06 347.63 64.74 347.63 68.51 332.51"/>
      <path class="c" d="m125.19,400.53v-13.23c0-6.61-1.89-11.34-6.61-13.23,9.45-1.89,16.06-10.39,16.06-20.78,0-14.17-7.56-20.78-23.62-20.78h-35.9l-16.06,76.52v.94h17.95l6.61-29.28h15.11c7.56,0,10.39,2.83,10.39,8.5v15.11c0,1.89,0,3.78.94,5.67h17.95v-.94c-2.83-2.83-2.83-5.67-2.83-8.5Zm-34.95-53.85h15.11c6.61,0,11.34,1.89,11.34,8.5,0,8.5-8.5,11.34-17,11.34h-15.11l5.67-19.84Z"/>
      <path class="c" d="m191.32,332.51h-17.95l-45.34,76.52-.94.94h18.89l9.45-17h27.39l2.83,17h17.95l-12.28-77.46h0Zm-9.45,47.23h-18.89l15.11-28.34,3.78,28.34Z"/>
      <path class="c" d="m251.78,332.51h-28.34l-16.06,76.52v.94h32.12c27.39,0,44.4-17.95,44.4-47.23.94-18.89-11.34-30.23-32.12-30.23Zm15.11,33.06c0,19.84-13.23,28.34-25.51,28.34h-12.28l10.39-46.29h12.28c9.45,0,15.11,6.61,15.11,17.95Z"/>
      <polygon class="c" points="318.85 332.51 299.95 332.51 283.89 409.03 283.89 409.98 301.84 409.98 317.9 333.46 318.85 332.51"/>
      <polygon class="c" points="368.91 385.42 349.08 332.51 330.18 332.51 314.12 409.03 314.12 409.98 331.13 409.98 341.52 358.02 362.3 409.03 362.3 409.98 379.3 409.98 396.31 333.46 396.31 332.51 379.3 332.51 368.91 385.42"/>
      <path class="c" d="m439.76,345.74c9.45,0,14.17,3.78,15.11,12.28v.94h17.95v-.94c0-17-12.28-27.39-33.06-27.39-12.28,0-22.67,4.72-31.17,14.17-7.56,8.5-11.34,19.84-11.34,32.12,0,21.73,12.28,34.01,34.01,34.01,7.56,0,14.17-2.83,18.89-8.5v6.61h12.28l8.5-42.51h-33.06l-2.83,13.23h17c-3.78,10.39-9.45,15.11-19.84,15.11s-17-6.61-17-18.89c0-11.34,6.61-30.23,24.56-30.23Z"/>
    </g>
  </g>
</svg>