<svg width="307" height="39" viewBox="0 0 307 39" fill="none" xmlns="http://www.w3.org/2000/svg">
<g clip-path="url(#clip0_3_1027)">
<path d="M0 33.4656L10.8802 21.3443L4.44884 8.77441L0 33.4656Z" fill="#EC1C24"/>
<path d="M22.7468 14.2484L20.1822 8.79785H11.4083L16.8008 19.6989L22.7484 14.2484H22.7468ZM31.5446 31.4786L26.6517 21.3429L35.1386 11.187L31.5446 31.4786ZM43.5652 8.79785H27.8856L6.43286 33.4424H14.9784L20.5835 26.8959L23.6747 33.4424H38.401L40.3788 22.4606L42.1647 28.5228L47.5065 22.2278L43.5652 8.79785ZM151.355 8.85218L146.491 33.4114H153.428L158.293 8.85218H151.355ZM174.88 8.85218L172.229 23.0133L166.456 8.85218H159.855L154.991 33.4114H161.574L164.233 19.4226L170.071 33.4114H176.504L181.368 8.85218H174.88ZM83.4239 14.4937L83.4302 14.4874L89.4715 8.85218H84.5389L56.9561 8.79785L42.6262 30.0861H49.8142L55.2701 21.7559L53.1639 33.4424H60.4121L63.7745 14.7824H69.4382L65.7824 33.4114H72.7181L76.374 14.7824H83.1146L83.4239 14.4952V14.4937ZM201.052 33.4114L202.331 26.9875L197.19 33.4114H201.054H201.052ZM191.083 24.8017H196.32C195.384 27.0496 193.787 28.0261 191.151 28.0261C187.144 28.0261 186.65 24.4928 186.623 22.9745C186.573 20.1926 187.528 17.4821 189.114 15.9017C190.223 14.7979 191.608 14.2391 193.227 14.2391C196.542 14.2391 197.073 15.8831 197.167 17.3144L197.219 18.1123H204.052L204.036 17.2445C203.937 11.7335 199.755 8.30884 193.119 8.30884C189.511 8.30884 186.328 9.57871 183.915 11.9803C181.19 14.6939 179.673 18.7116 179.749 23.004C179.872 29.861 184.137 33.9563 191.16 33.9563C193.089 33.9563 194.829 33.3648 196.223 32.2595L196.226 32.4582L202.385 26.7143L203.85 19.3512H192.177L191.084 24.8017H191.083ZM112.835 22.8736L115.833 17.2802L116.637 22.8736H112.835ZM96.8624 18.0518C96.1344 18.7768 94.772 19.1913 93.1241 19.1913H89.4381L90.3628 14.4611H94.5119C96.7609 14.4611 97.4556 14.9237 97.4825 16.4419C97.4952 17.0971 97.2906 17.6233 96.8624 18.0518ZM137.754 8.85218H128.604L124.463 29.7601L120.532 8.85218H114.042L101.503 30.2631C101.498 30.1342 101.494 30.0023 101.492 29.8858C101.478 29.1422 101.511 28.3645 101.541 27.6457C101.568 26.9999 101.592 26.4038 101.584 25.9179C101.554 24.2459 101.115 22.9792 100.272 22.1253C102.762 21.0122 104.394 18.5408 104.342 15.675C104.263 11.1482 101.592 8.85218 96.404 8.85218H89.4889L82.9291 17.0474L79.711 33.4114H86.615L88.3834 24.4803H92.5024C94.6261 24.4803 95.0258 25.1261 95.048 26.396C95.0622 27.1412 95.0099 27.8925 94.9607 28.6455C94.9068 29.445 94.8561 30.2445 94.8688 31.0362C94.8814 31.6665 95.0147 32.2362 95.1511 32.7656L95.3176 33.4098H107.105L109.955 28.3195H117.425L118.268 33.4098H125.693L131.854 27.3523L134.367 14.7809H137.508C140.363 14.7809 141.777 16.3177 141.835 19.4816C141.879 21.9763 141.102 24.1466 139.646 25.5981C138.409 26.8307 136.707 27.4827 134.726 27.4827H131.968L127.482 33.4114H134.574C138.785 33.4114 142.312 32.1167 144.77 29.667C147.417 27.031 148.773 23.1996 148.693 18.5889C148.582 12.401 144.597 8.85218 137.76 8.85218" fill="white"/>
<path d="M305.708 0.316895H212.647V38.3169H305.708V0.316895Z" fill="#4F4F4F"/>
<path d="M235.084 31.8416H222.168V9.74454H228.039V27.0338H235.086V31.8416H235.084ZM255.559 31.8416H250.134V30.1743C249.616 30.8108 249.092 31.275 248.563 31.5668C247.636 32.0745 246.583 32.3275 245.403 32.3275C243.495 32.3275 241.798 31.6864 240.309 30.401C238.534 28.8687 237.646 26.8397 237.646 24.3139C237.646 21.7882 238.555 19.6955 240.375 18.1617C241.82 16.9431 243.479 16.333 245.354 16.333C246.445 16.333 247.471 16.5596 248.431 17.0129C248.983 17.2722 249.551 17.6976 250.134 18.2921V16.8189H255.559V31.8416ZM250.299 24.3295C250.299 23.3794 249.958 22.5752 249.275 21.917C248.591 21.2479 247.765 20.9142 246.794 20.9142C245.714 20.9142 244.826 21.3131 244.131 22.1111C243.568 22.7584 243.287 23.4989 243.287 24.3295C243.287 25.16 243.568 25.899 244.131 26.5479C244.815 27.3474 245.703 27.7463 246.794 27.7463C247.776 27.7463 248.602 27.4172 249.275 26.759C249.958 26.1008 250.299 25.292 250.299 24.331V24.3295ZM298.182 24.3295C298.182 26.4128 297.482 28.1996 296.082 29.6884C294.383 31.5016 292.007 32.4082 288.954 32.4082C285.901 32.4082 283.508 31.5016 281.809 29.6884C280.409 28.1996 279.708 26.3693 279.708 24.2006C279.708 22.2461 280.413 20.5152 281.825 19.0031C283.535 17.1791 285.965 16.2678 289.119 16.2678C292.018 16.2678 294.334 17.1806 296.066 19.0031C297.478 20.4919 298.183 22.2679 298.183 24.3295H298.182ZM292.542 24.3295C292.542 23.3577 292.188 22.538 291.482 21.8689C290.788 21.1889 289.944 20.849 288.953 20.849C287.828 20.849 286.913 21.2588 286.207 22.0785C285.635 22.7367 285.346 23.4865 285.346 24.3279C285.346 25.1693 285.633 25.9362 286.207 26.5944C286.913 27.4157 287.828 27.8255 288.953 27.8255C289.957 27.8255 290.805 27.4902 291.5 26.8227C292.194 26.1427 292.542 25.3122 292.542 24.3295ZM272.605 17.845C274.696 19.3028 276.061 21.695 276.061 24.3962C276.061 28.833 272.382 32.4331 267.85 32.4331C263.319 32.4331 259.639 28.8315 259.639 24.3962C259.639 21.695 261.005 19.3028 263.095 17.845V9.2012C261.996 9.03354 261.153 8.10053 261.153 6.97659C261.153 5.73466 262.183 4.72559 263.454 4.72559H272.247C273.517 4.72559 274.548 5.73466 274.548 6.97659C274.548 8.10053 273.706 9.03354 272.605 9.2012V17.845ZM272.247 7.57116C272.583 7.57116 272.854 7.3057 272.854 6.97814C272.854 6.65058 272.583 6.38512 272.247 6.38512H263.454C263.119 6.38512 262.846 6.65058 262.846 6.97814C262.846 7.3057 263.119 7.57116 263.454 7.57116H272.247ZM270.911 10.6248V9.22914H264.788V18.7641C263.692 19.3369 262.781 20.2063 262.172 21.265C261.636 22.1902 261.332 23.2583 261.332 24.3962C261.332 27.9171 264.253 30.7751 267.849 30.7751C271.444 30.7751 274.366 27.9171 274.366 24.3962C274.366 21.9589 272.965 19.8383 270.91 18.7641V17.0005H269.622C269.262 17.0005 268.97 16.7149 268.97 16.3625C268.97 16.0101 269.262 15.7244 269.622 15.7244H270.91V14.4484H269.622C269.262 14.4484 268.97 14.1627 268.97 13.8103C268.97 13.4579 269.262 13.1723 269.622 13.1723H270.91V11.8977H269.622C269.262 11.8977 268.97 11.6121 268.97 11.2597C268.97 10.9073 269.262 10.6217 269.622 10.6217H270.91L270.911 10.6248Z" fill="white"/>
<path fill-rule="evenodd" clip-rule="evenodd" d="M282.632 22.9573C283.214 22.9573 283.685 23.4199 283.685 23.9881C283.685 24.5563 283.212 25.0189 282.632 25.0189C282.051 25.0189 281.579 24.5563 281.579 23.9881C281.579 23.4199 282.051 22.9573 282.632 22.9573ZM282.632 23.6947C282.465 23.6947 282.331 23.8266 282.331 23.9896C282.331 24.1526 282.465 24.2846 282.632 24.2846C282.799 24.2846 282.933 24.1526 282.933 23.9896C282.933 23.8266 282.799 23.6947 282.632 23.6947Z" fill="#EC1C24"/>
<path fill-rule="evenodd" clip-rule="evenodd" d="M285.238 20.4067C285.82 20.4067 286.291 20.8694 286.291 21.4375C286.291 22.0057 285.818 22.4683 285.238 22.4683C284.657 22.4683 284.185 22.0057 284.185 21.4375C284.185 20.8694 284.657 20.4067 285.238 20.4067ZM285.238 21.1441C285.071 21.1441 284.936 21.2761 284.936 21.4391C284.936 21.6021 285.071 21.7341 285.238 21.7341C285.404 21.7341 285.539 21.6021 285.539 21.4391C285.539 21.2761 285.404 21.1441 285.238 21.1441ZM280.919 24.5874C280.919 27.3569 283.217 29.6048 286.045 29.6048C288.873 29.6048 291.17 27.3569 291.17 24.5874C291.17 24.5858 280.919 24.5874 280.919 24.5874ZM287.844 27.5696C287.263 27.5696 286.79 27.107 286.79 26.5388C286.79 25.9706 287.263 25.508 287.844 25.508C288.424 25.508 288.897 25.9706 288.897 26.5388C288.897 27.107 288.424 27.5696 287.844 27.5696ZM287.844 26.2438C287.677 26.2438 287.542 26.3758 287.542 26.5388C287.542 26.7018 287.677 26.8337 287.844 26.8337C288.01 26.8337 288.145 26.7018 288.145 26.5388C288.145 26.3758 288.01 26.2438 287.844 26.2438Z" fill="#EC1C24"/>
</g>
<defs>
<clipPath id="clip0_3_1027">
<rect width="307" height="38" fill="white" transform="translate(0 0.316895)"/>
</clipPath>
</defs>
</svg>
