<?xml version="1.0" encoding="UTF-8"?><svg id="_レイヤー_2" xmlns="http://www.w3.org/2000/svg" viewBox="0 0 74.2 27.63"><defs><style>.cls-1,.cls-2{fill:#fff;}.cls-2,.cls-3{fill-rule:evenodd;}.cls-3{fill:#ec1c24;}</style></defs><g id="_レイヤー_1-2"><path class="cls-1" d="M12.61,27.04H0V5.01h5.73v17.24h6.88v4.79Z"/><path class="cls-1" d="M32.59,27.04h-5.29v-1.66c-.51.63-1.02,1.1-1.53,1.39-.9.51-1.93.76-3.08.76-1.86,0-3.52-.64-4.97-1.92-1.73-1.53-2.6-3.55-2.6-6.07s.89-4.61,2.66-6.13c1.41-1.22,3.03-1.82,4.86-1.82,1.07,0,2.07.23,3,.68.54.26,1.09.68,1.66,1.28v-1.47h5.29v14.98ZM27.46,19.55c0-.95-.33-1.75-1-2.41-.67-.67-1.47-1-2.42-1-1.06,0-1.92.4-2.6,1.19-.55.65-.82,1.38-.82,2.21s.27,1.57.82,2.21c.67.8,1.53,1.2,2.6,1.2.96,0,1.76-.33,2.42-.99.67-.66,1-1.46,1-2.42Z"/><path class="cls-1" d="M74.2,19.55c0,2.08-.68,3.86-2.05,5.34-1.66,1.81-3.98,2.71-6.96,2.71s-5.32-.9-6.97-2.71c-1.37-1.49-2.05-3.31-2.05-5.47,0-1.95.69-3.68,2.07-5.18,1.67-1.82,4.04-2.73,7.12-2.73,2.83,0,5.09.91,6.78,2.73,1.38,1.49,2.07,3.26,2.07,5.31ZM68.69,19.55c0-.97-.34-1.79-1.03-2.45-.68-.68-1.5-1.02-2.47-1.02-1.1,0-1.99.41-2.68,1.23-.56.66-.84,1.4-.84,2.24s.28,1.6.84,2.26c.69.82,1.58,1.23,2.68,1.23.98,0,1.81-.33,2.49-1,.68-.68,1.02-1.51,1.02-2.49Z"/><path class="cls-2" d="M49.23,13.08c2.04,1.45,3.37,3.84,3.37,6.53,0,4.42-3.59,8.01-8.01,8.01s-8.01-3.59-8.01-8.01c0-2.69,1.33-5.08,3.37-6.53V4.46c-1.07-.17-1.9-1.1-1.9-2.22,0-1.24,1.01-2.25,2.25-2.25h8.58c1.24,0,2.25,1.01,2.25,2.25,0,1.12-.82,2.05-1.9,2.22v8.62ZM48.88,2.84c.33,0,.59-.26.59-.59s-.26-.59-.59-.59h-8.58c-.33,0-.59.26-.59.59s.27.59.59.59h8.58ZM47.58,5.88v-1.39h-5.98v9.51c-1.07.57-1.96,1.44-2.55,2.49-.52.92-.82,1.99-.82,3.12,0,3.51,2.85,6.36,6.36,6.36s6.36-2.85,6.36-6.36c0-2.43-1.37-4.55-3.37-5.62v-1.76h-1.26c-.35,0-.64-.28-.64-.64s.28-.64.64-.64h1.26v-1.27h-1.26c-.35,0-.64-.28-.64-.64s.28-.64.64-.64h1.26v-1.27h-1.26c-.35,0-.64-.28-.64-.64s.28-.64.64-.64h1.26Z"/><path class="cls-3" d="M39.59,19.81s10.01,0,10.01,0c0,2.76-2.24,5-5,5s-5-2.24-5-5Z"/><path class="cls-1" d="M41.26,19.87c.36,0,.66-.3.66-.66s-.3-.66-.66-.66-.66.3-.66.66.3.66.66.66Z"/><path class="cls-3" d="M41.26,18.19c.57,0,1.03.46,1.03,1.03s-.46,1.03-1.03,1.03-1.03-.46-1.03-1.03.46-1.03,1.03-1.03ZM41.26,18.92c-.16,0-.29.13-.29.29s.13.29.29.29.29-.13.29-.29-.13-.29-.29-.29Z"/><path class="cls-1" d="M43.81,17.33c.36,0,.66-.3.66-.66s-.3-.66-.66-.66-.66.3-.66.66.3.66.66.66Z"/><path class="cls-3" d="M43.81,15.65c.57,0,1.03.46,1.03,1.03s-.46,1.03-1.03,1.03-1.03-.46-1.03-1.03.46-1.03,1.03-1.03ZM43.81,16.38c-.16,0-.29.13-.29.29s.13.29.29.29.29-.13.29-.29-.13-.29-.29-.29Z"/><path class="cls-2" d="M46.35,20.73c.57,0,1.03.46,1.03,1.03s-.46,1.03-1.03,1.03-1.03-.46-1.03-1.03.46-1.03,1.03-1.03ZM46.35,21.47c-.16,0-.29.13-.29.29s.13.29.29.29.29-.13.29-.29-.13-.29-.29-.29Z"/></g></svg>