<?xml version="1.0" encoding="UTF-8"?>
<svg id="_レイヤー_1" data-name="レイヤー 1" xmlns="http://www.w3.org/2000/svg" viewBox="0 0 513 513">
  <defs>
    <style>
      .cls-1 {
        stroke: #231815;
        stroke-miterlimit: 10;
      }

      .cls-2 {
        fill: #ec1c24;
      }

      .cls-2, .cls-3 {
        stroke-width: 0px;
      }

      .cls-3 {
        fill: #fff;
      }
    </style>
  </defs>
  <rect class="cls-1" x=".5" y=".5" width="512" height="512" rx="20" ry="20"/>
  <g id="favicon">
    <polygon class="cls-2" points="80.98 144.65 121.96 226.61 53.14 305.48 80.98 144.65"/>
    <polygon class="cls-3" points="197.73 180.22 181.5 144.65 125.82 144.65 159.85 215.79 197.73 180.22"/>
    <path class="cls-3" d="M330.73,144.65h-100.52l-136.09,160.83h54.13l35.57-42.53,19.33,42.53h93.56l12.37-71.14,11.6,39.43,34.02-40.98-23.97-88.15ZM254.18,292.34l-30.93-65.72,54.13-65.72-23.2,131.45Z"/>
    <polygon class="cls-3" points="415.78 144.65 324.54 283.06 370.16 283.06 404.96 228.93 391.81 305.48 437.44 305.48 459.09 184.08 459.09 184.08 466.04 144.65 415.78 144.65"/>
    <g>
      <polygon class="cls-3" points="102.63 320.17 49.27 320.17 46.96 332.54 66.29 332.54 56.23 382.8 55.46 383.58 70.15 383.58 80.98 332.54 99.53 332.54 102.63 320.17"/>
      <path class="cls-3" d="M149.02,375.84v-10.83c0-5.41-1.55-9.28-5.41-10.83,7.73-1.55,13.14-8.51,13.14-17.01,0-11.6-6.19-17.01-19.33-17.01h-29.38l-13.14,62.63v.77h14.69l5.41-23.97h12.37c6.19,0,8.51,2.32,8.51,6.96v12.37c0,1.55,0,3.09.77,4.64h14.69v-.77c-2.32-2.32-2.32-4.64-2.32-6.96ZM120.41,331.77h12.37c5.41,0,9.28,1.55,9.28,6.96,0,6.96-6.96,9.28-13.92,9.28h-12.37l4.64-16.24Z"/>
      <path class="cls-3" d="M203.15,320.17h-14.69l-37.11,62.63-.77.77h15.46l7.73-13.92h22.42l2.32,13.92h14.69l-10.05-63.4h0ZM195.41,358.83h-15.46l12.37-23.2,3.09,23.2Z"/>
      <path class="cls-3" d="M252.63,320.17h-23.2l-13.14,62.63v.77h26.29c22.42,0,36.34-14.69,36.34-38.66.77-15.46-9.28-24.74-26.29-24.74ZM265.01,347.24c0,16.24-10.83,23.2-20.88,23.2h-10.05l8.51-37.89h10.05c7.73,0,12.37,5.41,12.37,14.69Z"/>
      <polygon class="cls-3" points="307.53 320.17 292.07 320.17 278.92 382.8 278.92 383.58 293.61 383.58 306.76 320.95 307.53 320.17"/>
      <polygon class="cls-3" points="348.51 363.47 332.28 320.17 316.81 320.17 303.67 382.8 303.67 383.58 317.59 383.58 326.09 341.05 343.1 382.8 343.1 383.58 357.02 383.58 370.94 320.95 370.94 320.17 357.02 320.17 348.51 363.47"/>
      <path class="cls-3" d="M406.51,331c7.73,0,11.6,3.09,12.37,10.05v.77h14.69v-.77c0-13.92-10.05-22.42-27.06-22.42-10.05,0-18.56,3.87-25.52,11.6-6.19,6.96-9.28,16.24-9.28,26.29,0,17.78,10.05,27.84,27.84,27.84,6.19,0,11.6-2.32,15.46-6.96v5.41h10.05l6.96-34.8h-27.06l-2.32,10.83h13.92c-3.09,8.51-7.73,12.37-16.24,12.37s-13.92-5.41-13.92-15.46c0-9.28,5.41-24.74,20.1-24.74Z"/>
    </g>
  </g>
</svg>