<?xml version="1.0" encoding="utf-8"?>
<!-- Generator: Adobe Illustrator 23.0.4, SVG Export Plug-In . SVG Version: 6.00 Build 0)  -->
<svg version="1.1" id="Layer_1" xmlns="http://www.w3.org/2000/svg" xmlns:xlink="http://www.w3.org/1999/xlink" x="0px" y="0px"
	 viewBox="0 0 161.6 32" style="enable-background:new 0 0 161.6 32;" xml:space="preserve">
<style type="text/css">
	.st0{fill:#EC1C24;}
</style>
<g>
	<g>
		<polygon class="st0" points="4,0.8 9.1,10.9 0.5,20.7 		"/>
	</g>
	<g>
		<path d="M80.1,29.8h-1.3l-0.2-3.1h0l-1.4,3.1H76l-0.5-4.5h1.3l0.2,3.1h0l1.4-3.1h1.2l0.1,3.1h0l1.4-3.1h1.3L80.1,29.8z"/>
		<path d="M87.1,29.8h-1.3l-0.2-3.1h0l-1.4,3.1H83l-0.5-4.5h1.3l0.2,3.1h0l1.4-3.1h1.2l0.1,3.1h0l1.4-3.1h1.3L87.1,29.8z"/>
		<path d="M94.2,29.8h-1.3l-0.2-3.1h0l-1.4,3.1h-1.3l-0.5-4.5h1.3l0.2,3.1h0l1.4-3.1h1.2l0.1,3.1h0l1.4-3.1h1.3L94.2,29.8z"/>
		<path d="M96,28.4h1.4l-0.3,1.3h-1.4L96,28.4z"/>
		<path d="M100.9,27.4l1.1,2.3h-1.3l-0.6-1.5l-1.2,1.5h-1.4l2.1-2.4l-1-2.1h1.3l0.5,1.3l1-1.3h1.4L100.9,27.4z"/>
		<path d="M103.5,25.3h1.2l-0.1,0.6h0c0.4-0.5,0.9-0.8,1.6-0.8c0.5,0,1,0.2,1.1,0.8c0.3-0.5,0.9-0.8,1.5-0.8c0.7,0,1.4,0.4,1.4,1.1
			c0,0.3-0.1,0.6-0.1,0.8l-0.6,2.6h-1.2l0.6-2.8c0-0.1,0-0.2,0-0.3c0-0.3-0.2-0.5-0.5-0.5c-0.7,0-1,0.7-1.1,1.2l-0.5,2.4h-1.2
			l0.6-2.8c0-0.1,0-0.2,0-0.3c0-0.3-0.2-0.5-0.5-0.5c-0.7,0-1,0.7-1.1,1.2l-0.5,2.4h-1.2L103.5,25.3z"/>
		<path d="M112.9,25.3h0.9l-0.2,0.8h-0.9l-0.5,2.2c0,0.1,0,0.2,0,0.2c0,0.3,0.2,0.3,0.4,0.3c0.1,0,0.3,0,0.4,0l-0.2,0.9
			c-0.3,0-0.5,0-0.8,0c-0.6,0-1.2-0.2-1.2-0.9c0-0.1,0-0.3,0.1-0.4l0.5-2.4h-0.8l0.2-0.8h0.8l0.3-1.4h1.2L112.9,25.3z"/>
		<path d="M114.5,25.3h1.2l-0.2,0.8l0,0c0.3-0.6,0.9-0.9,1.5-0.9c0.1,0,0.3,0,0.4,0l-0.3,1.2c-0.2,0-0.3-0.1-0.5-0.1
			c-0.9,0-1.3,0.7-1.4,1.5l-0.4,2h-1.2L114.5,25.3z"/>
		<path d="M117.3,26.7c0.2-1.1,1.1-1.5,2.1-1.5c0.8,0,1.9,0.2,1.9,1.2c0,0.2,0,0.5-0.1,0.8l-0.4,1.8c0,0.2-0.1,0.4-0.1,0.6
			c0,0.1,0,0.2,0,0.3h-1.2v-0.4c-0.3,0.4-0.9,0.6-1.4,0.6c-1,0-1.4-0.6-1.4-1.2c0-0.9,0.6-1.4,1.7-1.5c1.2-0.1,1.7-0.1,1.7-0.6
			c0-0.4-0.5-0.5-0.8-0.5c-0.4,0-0.8,0.2-0.9,0.7H117.3z M119.9,27.6c-0.3,0.2-0.7,0.2-1,0.2c-0.5,0-0.9,0.2-0.9,0.7
			c0,0.3,0.3,0.5,0.7,0.5c0.8,0,1-0.5,1.1-1L119.9,27.6z"/>
		<path d="M124.8,29.2L124.8,29.2c-0.3,0.5-0.8,0.7-1.4,0.7c-1.1,0-1.7-0.7-1.7-1.8c0-1.5,0.8-2.9,2.4-2.9c0.5,0,1.1,0.2,1.3,0.7h0
			l0.5-2.3h1.2l-1.3,6.2h-1.2L124.8,29.2z M122.9,28c0,0.5,0.3,1,0.9,1c0.9,0,1.3-1.1,1.3-1.9c0-0.6-0.3-1-0.9-1
			C123.3,26.1,122.9,27.2,122.9,28z"/>
		<path d="M127.6,25.3h1.2l-0.9,4.5h-1.2L127.6,25.3z M129,24.6h-1.2l0.2-1h1.2L129,24.6z"/>
		<path d="M129.6,25.3h1.2l-0.1,0.6h0c0.4-0.5,0.9-0.7,1.6-0.7c0.8,0,1.3,0.4,1.3,1.2c0,0.2-0.1,0.6-0.1,0.8l-0.6,2.6h-1.2l0.5-2.6
			c0-0.1,0.1-0.4,0.1-0.5c0-0.3-0.3-0.5-0.6-0.5c-0.7,0-1.1,0.6-1.3,1.2l-0.5,2.4h-1.2L129.6,25.3z"/>
		<path d="M138.1,29.5c-0.3,1.4-1,1.9-2.5,1.9c-0.9,0-1.9-0.4-1.9-1.5h1.2c0,0.4,0.4,0.6,0.8,0.6c0.8,0,1-0.7,1.2-1.6l0,0
			c-0.3,0.4-0.7,0.6-1.2,0.6c-1.1,0-1.7-0.7-1.7-1.8c0-1.3,0.8-2.7,2.3-2.7c0.6,0,1.1,0.2,1.4,0.8h0l0.1-0.7h1.2L138.1,29.5z
			 M135.3,27.8c0,0.5,0.3,1,0.8,1c0.9,0,1.3-0.9,1.3-1.7c0-0.6-0.3-1-0.9-1C135.7,26.1,135.3,27.1,135.3,27.8z"/>
		<path d="M139.4,28.4h1.4l-0.3,1.3h-1.4L139.4,28.4z"/>
		<path d="M145,26.8c0-0.5-0.3-0.7-0.8-0.7c-0.9,0-1.3,1.1-1.3,1.9c0,0.5,0.2,1,0.8,1c0.5,0,0.9-0.4,1-0.8h1.2
			c-0.4,1.1-1.1,1.8-2.3,1.8c-1.2,0-2-0.6-2-1.9c0-1.5,0.9-2.8,2.5-2.8c1.1,0,2,0.5,2,1.7H145z"/>
		<path d="M149,25.2c1.2,0,2.1,0.6,2.1,1.9c0,1.6-1,2.8-2.6,2.8c-1.2,0-2-0.6-2-1.9C146.5,26.4,147.4,25.2,149,25.2z M148.6,29
			c0.9,0,1.3-1.1,1.3-1.9c0-0.6-0.3-1-0.9-1c-0.9,0-1.3,1.1-1.3,1.9C147.7,28.5,148,29,148.6,29z"/>
		<path d="M152.3,25.3h1.2l-0.1,0.6h0c0.4-0.5,0.9-0.8,1.6-0.8c0.5,0,1,0.2,1.1,0.8c0.3-0.5,0.9-0.8,1.5-0.8c0.7,0,1.4,0.4,1.4,1.1
			c0,0.3-0.1,0.6-0.1,0.8l-0.6,2.6H157l0.6-2.8c0-0.1,0-0.2,0-0.3c0-0.3-0.2-0.5-0.5-0.5c-0.7,0-1,0.7-1.1,1.2l-0.5,2.4h-1.2
			l0.6-2.8c0-0.1,0-0.2,0-0.3c0-0.3-0.2-0.5-0.5-0.5c-0.7,0-1,0.7-1.1,1.2l-0.5,2.4h-1.2L152.3,25.3z"/>
	</g>
	<g>
		<polygon points="18.4,5.2 16.4,0.8 9.5,0.8 13.7,9.6 		"/>
		<path d="M34.8,0.8H22.5L5.6,20.7h6.7l4.4-5.3l2.4,5.3h11.6l1.6-8.8l1.4,4.9l4.2-5.1L34.8,0.8z M25.3,19.1l-3.9-8.2l6.7-8.2
			L25.3,19.1z"/>
		<polygon points="119.8,0.9 115.9,20.7 121.4,20.7 125.2,0.9 		"/>
		<polygon points="138.3,0.9 136.2,12.3 131.7,0.9 126.5,0.9 122.6,20.7 127.8,20.7 129.9,9.4 134.5,20.7 139.6,20.7 143.4,0.9 		
			"/>
		<polygon points="66.2,5.4 66.2,5.4 71,0.9 67.1,0.9 67.1,0.9 45.4,0.8 34.1,18 39.7,18 44,11.3 42.4,20.7 48.1,20.7 50.8,5.7 
			55.2,5.7 52.3,20.7 57.8,20.7 60.7,5.7 66,5.7 		"/>
		<polygon points="158.9,20.7 160,15.5 155.9,20.7 		"/>
		<path d="M151.1,13.7h4.1c-0.7,1.8-2,2.6-4.1,2.6c-3.2,0-3.5-2.8-3.6-4.1c0-2.2,0.7-4.4,2-5.7c0.9-0.9,2-1.3,3.2-1.3
			c2.6,0,3,1.3,3.1,2.5l0,0.6h5.4l0-0.7c-0.1-4.4-3.4-7.2-8.6-7.2c-2.8,0-5.4,1-7.3,3c-2.1,2.2-3.3,5.4-3.3,8.9
			c0.1,5.5,3.5,8.8,9,8.8c1.5,0,2.9-0.5,4-1.4l0,0.2l4.9-4.6l1.2-5.9H152L151.1,13.7z"/>
		<path d="M109.1,0.9h-7.2l-3.3,16.8L95.5,0.9h-5.1l-9.9,17.2c0-0.1,0-0.2,0-0.3c0-0.6,0-1.2,0-1.8c0-0.5,0-1,0-1.4
			c0-1.3-0.4-2.4-1-3.1c2-0.9,3.2-2.9,3.2-5.2c-0.1-3.6-2.2-5.5-6.3-5.5H71l-5.2,6.6l-2.5,13.2h5.4l1.4-7.2h3.2c1.7,0,2,0.5,2,1.5
			c0,0.6,0,1.2-0.1,1.8c0,0.6-0.1,1.3-0.1,1.9c0,0.5,0.1,1,0.2,1.4l0.1,0.5H79h2.1h3.8l2.2-4.1H93l0.7,4.1H98h1.1h0.4l4.9-4.9
			l2-10.1h2.5c2.3,0,3.4,1.2,3.4,3.8c0,2-0.6,3.8-1.7,4.9c-1,1-2.3,1.5-3.9,1.5h-2.2l-3.5,4.8h5.6c3.3,0,6.1-1,8-3
			c2.1-2.1,3.2-5.2,3.1-8.9C117.6,3.7,114.4,0.9,109.1,0.9z M76.8,8.3c-0.6,0.6-1.6,0.9-2.9,0.9H71l0.7-3.8H75
			c1.8,0,2.3,0.4,2.3,1.6C77.3,7.5,77.2,7.9,76.8,8.3z M89.4,12.2l2.4-4.5l0.6,4.5H89.4z"/>
	</g>
</g>
</svg>
