<?xml version="1.0" encoding="UTF-8"?>
<svg id="_レイヤー_1" data-name="レイヤー 1" xmlns="http://www.w3.org/2000/svg" viewBox="0 0 36.97 13.48">
  <defs>
    <style>
      .cls-1 {
        fill: #b2b2b2;
      }

      .cls-1, .cls-2 {
        stroke-width: 0px;
      }

      .cls-2 {
        fill: #a9171f;
      }
    </style>
  </defs>
  <path class="cls-1" d="M0,13.28c.02-.08.02-.16,0-.25L2.53.2c.02-.13.15-.22.28-.19.05.01.1.04.14.08l5.36,6.6c.23.29.2.54-.09.76-2.34,1.81-5.28,3.71-7.34,5.76-.33.33-.62.35-.88.07Z"/>
  <path class="cls-2" d="M18.07.19l5.4,6.68c.11.13.09.32-.04.42,0,0,0,0,0,0l-7.85,6.12c-.13.1-.32.08-.42-.05-.05-.07-.07-.15-.06-.24L17.54.32c.03-.16.19-.27.35-.24.07.01.13.05.18.11Z"/>
  <path class="cls-2" d="M31.5.19l5.4,6.68c.11.13.09.32-.04.42,0,0,0,0,0,0l-7.85,6.12c-.13.1-.32.08-.42-.05-.05-.07-.07-.15-.06-.24L30.97.32c.03-.16.19-.27.35-.24.07.01.13.05.18.11Z"/>
</svg>