<?xml version="1.0" encoding="utf-8"?>
<!-- Generator: Adobe Illustrator 28.0.0, SVG Export Plug-In . SVG Version: 6.00 Build 0)  -->
<svg version="1.1" id="_レイヤー_1" xmlns="http://www.w3.org/2000/svg" xmlns:xlink="http://www.w3.org/1999/xlink" x="0px"
	 y="0px" viewBox="0 0 136 26" style="enable-background:new 0 0 136 26;" xml:space="preserve">
<style type="text/css">
	.st0{fill:#999999;}
</style>
<path class="st0" d="M18.5,3.2c-0.7-0.6-1.9,0.4-2.5,0.9c-0.1,0.1-0.2,0.1-0.2,0l-0.7-0.9C15,3.1,15,3,15.1,2.9
	c0.7-0.8,2.5-3.3,3.9-2.1c2.4,2.1,9.1,6.6,4.5,10.4c-2.7,2.2-5.3,4.4-7.8,6.6c-0.1,0.1-0.1,0.1-0.2,0l-1-1c-0.1-0.1-0.1-0.1,0-0.2
	c2.1-2.2,4.2-4.2,6.5-6.2C24.3,7.4,20.4,5.1,18.5,3.2L18.5,3.2z M2.7,7C2,7.7,3.1,8.9,3.5,9.5c0.1,0.1,0.1,0.2-0.1,0.3l-0.7,0.6
	c-0.1,0.1-0.2,0.1-0.4,0C1.2,9.5-0.9,7.8,0.5,6.3c1.6-1.8,4-4.9,6.2-5.6c1.6-0.5,3,0.1,4.3,1.6c2.6,3.2,4.7,5.7,6.4,7.6
	c0.1,0.1,0.1,0.1,0,0.2l-1,1c0,0-0.1,0-0.1,0c-2-2-3.9-4-5.8-6C6.8,1.2,5.2,4.5,2.7,7z M84.5,20.4c1.5,0.8,2.8,1.9,4.8,1.5
	c0,0,0.1,0,0.1,0c0,0,0,0,0,0l-0.6,1.4c0,0.1-0.1,0.1-0.1,0.1c-2.1,0.6-3.7-0.8-5.4-1.7c-0.8-0.4-1.8-0.7-3-0.8
	c-2.7-0.3-4.6-2.9-5.1-5.5c-0.9-4.9,0.7-11.2,7.1-10.4c5.2,0.6,6.2,7.6,5,11.5c-0.5,1.5-1.4,2.8-2.7,3.7
	C84.4,20.3,84.4,20.4,84.5,20.4C84.5,20.4,84.5,20.4,84.5,20.4L84.5,20.4z M81.2,19.4c4.9,0.3,4.3-7,3.7-9.8
	c-0.7-2.9-4.2-3.9-6.2-1.8c-1.7,1.9-1.4,6.2-0.9,8.5C78.3,18.2,79.2,19.3,81.2,19.4L81.2,19.4z M34.5,8l-1,12.9c0,0.1,0,0.1-0.1,0.1
	h-2c0,0-0.1,0-0.1-0.1l1.4-15.4c0-0.1,0.1-0.2,0.2-0.2h2.7c0.1,0,0.2,0.1,0.2,0.2c0.9,3.2,1.8,6.3,2.6,9.5c0.2,0.8,0.4,1.5,0.5,2.3
	c0,0.1,0,0.1,0,0l3.3-11.8c0-0.1,0.1-0.2,0.2-0.2h2.8c0.1,0,0.2,0.1,0.2,0.2l1.3,15.4c0,0,0,0.1-0.1,0.1h-2.1c0,0-0.1,0-0.1-0.1
	L43.7,8c0,0,0,0,0,0h-0.1c0,0,0,0,0,0c0,0.4-0.1,0.8-0.2,1.2c-1.1,3.9-2.2,7.7-3.3,11.6c0,0.1-0.1,0.2-0.2,0.2h-1.6
	c-0.1,0-0.2-0.1-0.2-0.2L34.5,8C34.5,8,34.5,7.9,34.5,8L34.5,8z M61.3,11.2c0,2.2,0,4.4,0,6.7c0,0.7,0,1.4,0.6,1.7
	c0.4,0.2,1.2,0.2,1.6,0c0.2-0.1,0.3,0,0.3,0.2l0.2,0.8c0,0.2,0,0.3-0.2,0.3c-1.9,0.8-4.7,0.4-4.6-2.2c0-2.5,0.1-5,0.1-7.5
	c0-0.1-0.1-0.2-0.2-0.2h-1c-0.1,0-0.2-0.1-0.2-0.2v-1c0-0.2,0.1-0.3,0.3-0.3h0.9c0.1,0,0.1-0.1,0.1-0.1l0.1-2.7c0-0.1,0-0.1,0.1-0.1
	l2-0.5c0,0,0.1,0,0.1,0.1c0,0,0,0,0,0l-0.2,3.1c0,0.1,0,0.2,0.2,0.2H64c0,0,0.1,0,0.1,0.1v0l-0.5,1.3c0,0-0.1,0.1-0.1,0.1h-2
	C61.4,11,61.3,11.1,61.3,11.2L61.3,11.2z M113.9,11.2c0,2.4,0,4.8,0,7.3c0,1.3,1.3,1.5,2.3,1.1c0.1,0,0.2,0,0.2,0.1l0.2,0.9
	c0,0.1,0,0.2-0.1,0.3c-0.7,0.3-1.5,0.4-2.3,0.4c-1.6-0.2-2.4-1.1-2.4-2.8c0.1-2.4,0.1-4.8,0.1-7.2c0-0.1-0.1-0.2-0.2-0.2h-0.9
	c-0.2,0-0.3-0.1-0.3-0.3V9.8c0-0.2,0.1-0.2,0.2-0.2h1c0.1,0,0.1,0,0.1-0.1l0.1-2.7c0-0.1,0-0.1,0.1-0.1l2-0.5c0,0,0.1,0,0.1,0.1v0
	l-0.2,3.1c0,0.1,0.1,0.2,0.2,0.2h2.5c0,0,0.1,0,0.1,0.1c0,0,0,0,0,0l-0.5,1.3c0,0.1-0.1,0.1-0.2,0.1h-1.9
	C114,11,114,11.1,113.9,11.2L113.9,11.2z M134.7,11.5C134.7,11.5,134.7,11.5,134.7,11.5c-0.7-0.3-1.4-0.6-2.3-0.7
	c-1.3-0.2-2.7,0.5-2.5,2c0.2,1.3,3.1,1.6,3.8,1.8c2.6,0.9,2.9,4.1,0.9,5.7c-2,1.7-5.3,1.1-7.4-0.1c0,0-0.1-0.1,0-0.1l0.7-1.4
	c0-0.1,0.1-0.1,0.1,0l0,0c1.3,0.8,4.3,1.9,5.4,0.2c0.7-1.1,0.2-2.3-1.1-2.6c-2-0.5-4.5-0.6-4.6-3.3c-0.2-4.3,4.9-4.3,7.6-2.9
	c0,0,0.1,0.1,0,0.1l0,0L134.7,11.5L134.7,11.5z M50.5,15.9c0,0.1,0,0.2,0,0.3c0,0.1,0,0.2,0,0.3c-0.1,3.3,3.6,4,5.7,2.2
	c0.1-0.1,0.2-0.1,0.3,0l0.6,0.9c0.1,0.1,0.1,0.2-0.1,0.3c-1.5,1.2-3.2,1.6-5,1.2c-4.5-0.9-5.1-8.9-1.6-11c2.3-1.4,5.2-0.8,6.4,1.7
	c0.5,1,0.7,2.3,0.5,4c0,0.1,0,0.1-0.1,0.1h-6.5C50.6,15.7,50.5,15.8,50.5,15.9L50.5,15.9z M50.6,14.2h4.5c0.1,0,0.1,0,0.1-0.1v-0.4
	c0-1.6-1-2.9-2.2-2.9h-0.3c-1.2,0-2.2,1.3-2.2,2.9l0,0L50.6,14.2C50.5,14.1,50.6,14.2,50.6,14.2L50.6,14.2z M70.8,13.8
	c0.2-1.6-0.1-3.1-2.1-2.8c-1.2,0.2-2.2,0.6-3,1.2c-0.1,0-0.1,0-0.1,0l-0.8-1.3c0-0.1,0-0.1,0-0.1c2.5-1.7,8.2-2.9,8.1,1.9
	c0,1.8-0.1,3.6-0.1,5.3c0,0.9,0.3,1.5,0.8,2c0.1,0.1,0.1,0.1,0,0.2l-0.9,1.2c0,0.1-0.1,0.1-0.2,0c-0.6-0.3-1.1-0.8-1.3-1.4
	c0-0.1-0.1-0.1-0.2,0c-1,1-2.4,1.4-4.1,1.2c-2.2-0.3-3.2-2.4-2.6-4.4c0.8-2.6,3.9-2.9,6.2-2.8C70.8,13.9,70.8,13.9,70.8,13.8
	L70.8,13.8z M66.8,16.8c-1,2.7,1.9,3.8,3.6,1.9c0.7-0.8,0.5-2.3,0.5-3.3c0-0.1-0.1-0.2-0.2-0.2C69.3,15.2,67.3,15.3,66.8,16.8z
	 M100.1,14.1c0.4-3.3,2.5-5.5,6-4.8c4.5,0.9,4.9,8.6,1.7,11c-1.8,1.3-4.6,1.2-6.2-0.5C100.3,18.5,99.9,16,100.1,14.1L100.1,14.1z
	 M105.8,11c-3.5-1.1-3.6,3.2-3.4,5.4c0.1,0.9,0.3,1.6,0.6,2.2c1,1.7,3.7,1.3,4.2-0.6C107.6,16.4,108,11.7,105.8,11L105.8,11z
	 M119.5,15.8c0,1.1,0.1,2.3,1,3c1.3,1.1,3.4,0.8,4.7-0.3c0.1-0.1,0.1,0,0.2,0c0,0,0,0,0,0l0.6,1c0.1,0.1,0.1,0.2,0,0.3
	c-1,0.8-2,1.2-3.2,1.3c-2.9,0.2-4.7-1.1-5.4-3.8c-0.9-3.3,0.2-7.9,4.4-8c3.8-0.1,4.7,3.1,4.6,6.3c0,0.1-0.1,0.1-0.1,0.1h-6.6
	C119.5,15.7,119.4,15.8,119.5,15.8L119.5,15.8z M119.6,14.2l4.5,0c0,0,0.1,0,0.1-0.1l0,0v-0.3c0-1.6-1-2.9-2.2-2.9l0,0h-0.3
	c-1.2,0-2.2,1.3-2.2,2.9L119.6,14.2C119.5,14.1,119.5,14.2,119.6,14.2L119.6,14.2L119.6,14.2z M96.2,19.7c-2.3,2.5-6.8,1.9-6.7-2.1
	c0-2.6,0.1-5.3,0.1-7.9c0-0.1,0-0.1,0.1-0.1l1.9-0.4c0,0,0.1,0,0.1,0.1c0,0,0,0,0,0c0,2.4,0,4.8,0,7.2c0,1.3-0.1,2.4,1.1,2.9
	c1.1,0.5,2.3-0.1,3-1c0.2-0.3,0.4-0.8,0.4-1.3c0-2.5,0-4.9,0-7.3c0-0.1,0-0.1,0.1-0.1L98,9.3c0.1,0,0.1,0,0.1,0.1c0,2.9,0,5.8,0,8.8
	c0,0.7,0.2,1.3,0.6,1.9c0.1,0.1,0.1,0.2,0,0.2l-1.1,0.9c-0.1,0.1-0.2,0.1-0.3,0c-0.4-0.4-0.7-0.8-0.9-1.4
	C96.4,19.7,96.3,19.6,96.2,19.7L96.2,19.7z M6.6,22.8c0.3,0.3,0.8,0.3,1.2,0.1l1.3-1c0.1,0,0.2,0,0.2,0l0.7,0.9
	c0.1,0.1,0.1,0.1,0,0.2c-1.2,1.5-2.6,3.5-4.6,1.6c-2.3-2.1-8.1-6.2-3.9-9.7c2.7-2.2,5.3-4.5,7.9-6.7c0.1,0,0.1,0,0.2,0l1,1
	c0.1,0.1,0.1,0.1,0,0.2c-1.4,1.5-3.7,3.6-6.7,6.4C0.9,18.6,4.8,21.2,6.6,22.8L6.6,22.8z M14.7,21c3.5,3.9,5.2,0.4,7.6-2
	c0.7-0.7-0.4-1.9-0.8-2.5c-0.1-0.1-0.1-0.3,0-0.3c0,0,0,0,0,0l0.7-0.5c0.1-0.1,0.2-0.1,0.3,0c1.4,0.8,3.4,2.6,1.9,4.2
	c-2.2,2.4-6.5,8.6-10.2,4c-2.1-2.6-4.3-5.2-6.5-7.8c-0.1-0.1,0-0.1,0-0.2l1-1c0.1-0.1,0.1-0.1,0.1,0C10.9,16.9,12.8,18.9,14.7,21
	L14.7,21z"/>
</svg>
