<?xml version="1.0" encoding="utf-8"?>
<!-- Generator: Adobe Illustrator 28.0.0, SVG Export Plug-In . SVG Version: 6.00 Build 0)  -->
<svg version="1.1" id="_レイヤー_1" xmlns="http://www.w3.org/2000/svg" xmlns:xlink="http://www.w3.org/1999/xlink" x="0px"
	 y="0px" viewBox="0 0 131 38" style="enable-background:new 0 0 131 38;" xml:space="preserve">
<style type="text/css">
	.st0{fill:#999999;}
</style>
<path class="st0" d="M19.7,0L19.7,0C11.5,0,4,5.2,1.6,13c-4,13,5.7,25,18.1,25c10.5,0,19-8.5,19-19C38.7,8.5,30.2,0,19.7,0z
	 M35.1,19c0,0.5,0,1-0.1,1.6l0,0c0,0.1,0,0.2,0,0.3c0,0,0,0,0,0.1c0,0.1,0,0.2,0,0.3c0,0,0,0.1,0,0.1c0,0.1,0,0.1,0,0.2
	c0,0.1,0,0.1,0,0.2s0,0.1,0,0.2c0,0.1,0,0.1,0,0.2c0,0,0,0.1,0,0.2c0,0.1,0,0.2,0,0.2c0,0,0,0.1,0,0.1c0,0.1,0,0.2-0.1,0.2
	c0,0,0,0.1,0,0.1c0,0.1,0,0.2-0.1,0.3c0,0,0,0.1,0,0.1c0,0.1,0,0.2-0.1,0.3c0,0,0,0.1,0,0.1c0,0.1-0.1,0.2-0.1,0.3c0,0,0,0.1,0,0.1
	c0,0.1-0.1,0.2-0.1,0.3c0,0,0,0.1,0,0.1c0,0.1-0.1,0.2-0.1,0.2c0,0,0,0.1,0,0.1c0,0.1-0.1,0.1-0.1,0.2c0,0,0,0.1-0.1,0.1
	c0,0.1,0,0.1-0.1,0.2c0,0.1-0.1,0.1-0.1,0.2c0,0,0,0,0,0.1c-0.8,1.6-1.8,3-3.1,4.2c-0.1,0.1-0.1,0.1-0.2,0.2c0,0,0,0,0,0
	c-2.8,2.7-6.6,4.3-10.8,4.2c-8.1-0.1-14.8-6.7-15.2-14.7C3.9,10.9,10.9,3.6,19.7,3.6S35.1,10.5,35.1,19L35.1,19z M81,14.4h2.8v11.3
	H81V14.4z M78.8,18.1c0-0.9-0.3-1.8-0.9-2.5c-1.1-1.1-2.5-1.1-3.7-1.1h-5.1v11.3H72v-4h1.8l2.3,4h3.1l-2.6-4.5
	C77.9,20.8,78.9,19.5,78.8,18.1L78.8,18.1z M76,18.3c-0.1,0.8-0.9,1.4-1.7,1.3h-2.4v-3.1h2.4c0.6,0,1.6,0.1,1.6,1.5
	C76,18.1,76,18.2,76,18.3z M61.1,20.8h5.2v-2.1h-5.2v-2.1h5.5v-2.2h-8.4v11.3h8.9v-2.2h-6V20.8z M52,22.4l-2.3-8h-3l3.9,11.3h2.9
	l3.9-11.3h-3L52,22.4z M130,15.4c0-0.2-0.1-0.3-0.2-0.4c-0.1-0.1-0.2-0.1-0.4-0.1h-0.5v1.5h0.3v-0.6h0.2l0.2,0.6h0.4l-0.3-0.6
	C129.9,15.7,130,15.6,130,15.4L130,15.4z M129.4,15.6h-0.2v-0.4h0.2c0.2,0,0.2,0.1,0.2,0.2S129.6,15.6,129.4,15.6L129.4,15.6z
	 M94,19.3c-1.1-0.3-2.3-0.5-3.5-0.7c-0.5-0.1-1.4-0.2-1.4-1.1c0-0.5,0.6-1.2,1.7-1.2c0.7,0,1.3,0.2,1.8,0.5c0.4,0.2,0.8,0.6,1.1,0.9
	l2.1-1.5c-1.3-1.4-3.1-2.1-5-2.1c-2,0-4.6,0.9-4.6,3.8c0,2.4,2.4,3,3,3.1s1.2,0.2,1.9,0.3c0.8,0.1,2,0.3,2,1.2
	c0,0.8-0.9,1.3-2.1,1.3c-0.8,0-1.5-0.2-2.2-0.5c-0.4-0.2-0.8-0.5-1.1-0.9l-2.2,1.4c0.7,0.8,2,2.3,5.2,2.3c1.6,0,3.2-0.3,4.2-1.5
	c0.6-0.7,0.9-1.5,0.9-2.4C96,20.8,95.2,19.7,94,19.3L94,19.3z M129.4,14.5c-0.7,0-1.2,0.5-1.2,1.2c0,0.7,0.5,1.2,1.2,1.2
	c0,0,0,0,0.1,0c0.6,0,1.2-0.6,1.1-1.2C130.6,15,130.1,14.5,129.4,14.5z M129.4,16.8c-0.6,0-1.1-0.5-1.1-1.1c0-0.6,0.5-1.1,1.1-1.1
	l0,0c0,0,0,0,0.1,0c0.6,0,1,0.5,1,1.1C130.5,16.3,130,16.8,129.4,16.8L129.4,16.8z M122.7,21.6c-0.5-1-0.8-1.5-1.7-3.1l-2.4-4.2
	h-2.7l0,11.3h2.7l-0.1-7.1c0.6,1.2,1.3,2.4,2,3.5l2.1,3.6h2.8V14.4h-2.7L122.7,21.6L122.7,21.6z M98,14.4h2.8v11.3H98V14.4z
	 M108.5,21.6h2.5c0,0.7-0.3,1.3-0.9,1.7c-0.5,0.3-1,0.5-1.6,0.4c-0.8,0-1.5-0.3-2.1-0.8c-0.7-0.8-1-1.8-0.9-2.9c0-1.9,0.8-3.7,3-3.7
	c1.1,0,2.1,0.6,2.7,1.6l2.2-1.3c-1.1-1.6-3-2.6-5-2.6c-3.2,0-5.6,2.4-5.6,6.1c0,3.3,1.9,5.9,5.1,5.9c1.2,0,2.5-0.4,3.3-1.3v1.1h2.2
	v-6.3h-4.9V21.6L108.5,21.6z M23.3,12.3h7.1L27,18.2h-7.1L23.3,12.3z M19.7,30.3l3.5-6.1l-6.9-12h-7C9.3,12.3,19.7,30.3,19.7,30.3z"
	/>
</svg>
