<?xml version="1.0" encoding="UTF-8"?>
<svg id="_レイヤー_1" data-name=" レイヤー 1" xmlns="http://www.w3.org/2000/svg" version="1.1" viewBox="0 0 238 93">
  <defs>
    <style>
      .cls-1 {
        fill: #999;
        stroke-width: 0px;
      }
    </style>
  </defs>
  <path class="cls-1" d="M57.2,4.4c0-.6,0-1-.2-1.3-.4-1.1-1.5-1.7-2.5-2.1-.6-.2-1.2-.5-1.8-.8h0l-.2.3h-.2c-.7-.2-1.3,0-1.8.4-.3.3-.7.6-1.1.9h-.2c-.3-.3-.9-.9-1.3-.9-1.6,0-3.4-.3-4.6,1v.4c0,0,.2,0,0,0-.2.5-.5.7-.9.8,0,0,0,0-.2,0-1.1,2.1-.2,3.9,1.4,5.5.8.8,1.5,1.5,2.3,2.3.4.4.8.8,1,1.4.6,1.9-.3,3.8-.7,5.6-.2.7-.2,1.4-.2,2.2,0,.1.2.2.4.3,0,0,.3.1.5.1h.7v-.3h-.3v-.3l.6-.4s0-.1,0-.2c0-1,.3-1.9.9-2.8.3-.5.6-.9.9-1.4.5-1,1.3-1.8,2.3-2.4.7-.4,1.4-.9,2.1-1.3,1.1-.7,1.8-1.6,2.4-2.8,0-.1,0-.3.3-.3,0-.1.2-.3.3-.5,0-.3.2-.6.4-.7,0,0,0,0,0,0,0-.9,0-1.8,0-2.7h-.4ZM55.1,7.5c0,.2-.2.3-.4.4-.4.3-.9.5-1.1,1,0,0,0,.1-.2.2,0,0-.3,0-.4.2-1.4,1.3-2.8,2.6-4.2,3.9h0s0,0,0-.1c-.2-1.4-1-2.4-2-3.3-.8-.8-1.6-1.5-2.2-2.5,0,0-.2,0-.3-.2-.4-.2-.6-.4-.6-.8s0-1,.3-1.5c.4-.7,1.5-2.2,2.4-2.3,1.1-.2,1.9.7,2.2,1.7,0,0,0,.2.2.2.4.2.7.6.8,1,.2.4.6.8,1,.5.3-.2.5-.5.4-.9,0-.5-.2-.9-.5-1.2-.4-.5-.4-1,.2-1.2,1.3-.6,3.4-.8,4.3.6.2.3.3.7.3,1.1,0,1.1,0,2.3-.3,3.3h.2ZM49.6,44.5c-.9,0-1.4.2-1.7.2-2.1-.2-4-.8-5.7-1.8-1.3-.8-2.6-1.8-3.8-3s-1.2-1.3-1.7-2c0,0-.2,0-.3-.2-.3,0-.4,0-.5.4-1.7,3.9-3.4,7.7-5.1,11.6-.3.6-.2,1,0,1.6v.5c-.1.3-.3.5-.4.8,0,0-.2.2-.4.2-1.3.4-2.8,1-3.1,2.4v.6c.1.7.1,1.5,0,2.4-.2.8-.4,1.5-.6,2.1,0,0-.1.2-.3.2h0c-.3-.6.3-1,0-1.6s-.9-1.9-2-3.9c-.2-.5.4-.7.1-1.2-1.9-3.5-3.9-7-5.8-10.6-.2-.4-.4-.6-.6-.7-.4-.3-.9-.2-1.4,0h-.1c-.4.4-.9.9-1.3,1.3-1.3,1.3-2.8,1.9-4.6,2.3-.5,0-1,0-1.4.3-.6.3-.8,1-.5,1.6,2.1,3.8,3.9,7.3,5.6,10.4.1.2.3.4.5.5s.5.2.7.3c.1,0,.2,0,.3.2.7,1.3,1.5,2.7,2.2,4.1.3.5.8.5,1.2.5s.2,0,.3.2c.9,1.6,1.6,2.9,2.2,3.9.2.3.4.6.2.9-.3.7-.6,1.4-.9,2-.5,1.2-.7,2.5-.7,3.9s.4,2.6,1.4,3.5c0,0,.1.2.1.3,0,.4.1.7.2,1.1.3,1.2,1.1,1.9,2.2,2.2,0,0,.1,0,.2.2.5,1.2,1.1,2,2.5,2s.4.2.5.3c.6.5,1.4.7,2.2.6.5,0,1-.2,1.4-.5.2-.2.5-.2.8-.2.7,0,1.3-.7,1.5-1.3,0,0,0-.3,0-.4,0,0,0-.2.3-.2.6,0,1.1,0,1.5-.5s.4-1,.4-1.5c0,0,0-.2,0-.2.7-.2,1.1-.6,1.4-1.3,0-.2.2-.3.4-.3,1,0,2.1-.5,2.4-1.6,0-.3.2-.7.2-1s0-.3.2-.3c.8-.4,1.9-1,2.5-1.7.5-.6.7-1.2.6-2,0-.5-.4-1.1-.9-1.1s-.9,0-1.4.3h-.2c0,0-.2,0-.2-.2,0-.6,0-1.1,0-1.5-.2-.8-.5-1.7-1-2.5-.3-.6-.6-1.2-.7-1.9v-.5c.5-1.3,1.4-2.3,2.4-3.4.2-.2.4-.5.6-.8.4-.8.2-2-.2-2.8v-.3c0-.2.2-.4.3-.7.3-.6,1-.3,1.4-.8,2.3-3.4,4.6-6.9,6.9-10.4.2-.3.3-.5.3-.7,0-.4-.4-.5-.7-.4h0ZM40.4,73.2c0-.3.2-.3.4-.5.3-.2,1.3-.8,1.5-.2.2,1-.7,1.4-1.4,1.9h0c0,0-.2,0-.4,0h0s0,0,0-.2c0-.4,0-.7,0-1.1h0ZM31.5,54.1c.1-.3.2-.7.4-1h0s.1-.2.2-.3h0c2.5,1.8,5.3,3.1,8.3,3.6h0c0,.4-.3.8-.5,1.1-.5.7-1.6,1.2-2.5,1.3-1.6,0-3-.2-4.3-1.1-.9-.7-1.7-1.5-1.8-2.6,0-.3,0-.7.1-1h0ZM20.5,62.7c-.5.2-.9.3-1.4.2-.2,0-.4,0-.5-.3-.8-1.3-1.5-2.6-2.2-3.9,0-.2-.2-.3-.3-.4-.2-.2-.4-.2-.7-.3s-.4-.3-.5-.5c-1.6-3-3.4-6.1-5.2-9.5v-.3c.2,0,.4-.2.6-.2,2.7-.4,4.6-1.9,6.6-3.7h.2l.3.3c1.7,3.2,3.4,6.3,5.1,9.5v.3c-.1.6-.4,1.1-.9,1.4-.4.3-.7.5-1.1.8s-.8.5-1.1.7c-.4.2-.8.4-1.2.6-.4.2-.6.6-.2.9.4.3.7.2,1.1,0,.4-.3.8-.5,1.2-.7.9-.5,1.7-1.1,2.5-1.8h.1c.6,1.1,1.2,2.2,1.8,3.3.2.3-.7,1.3-.9,1.5-1,.9-2.2,1.5-3.4,2h0ZM20.6,64.3h0c0,0,0-.3.1-.3,1.5-.7,2.9-1.4,4.2-2.5h.3c.2.3.4.6.2,1-.9,1.9-1.8,3.6-2.8,5.1h-.1l-.2-.2c-.5-1-1.1-2.1-1.7-3.1h0ZM30.8,83.2c-.3-.2-.4-.4-.6-.8-.2-.6-.4-1.1-.5-1.5s-.1-1.8.4-2.1c.4-.2.9.2,1,.5.5.9.7,2.1.8,3.1h0c0,.7-.6,1.2-1.2.8h.1ZM34.2,81.3c-.2.3-.5.4-.8.3-.2,0-.3-.2-.4-.4,0-.6-.3-1.1-.5-1.6-.3-.9-.9-1.7-1.8-1.9-.3,0-.4-.7-.4-1,0-.7.4-1.1,1.1-.8.7.4,1.1.8,1.5,1.4h0c.7,1.1,1.3,2.1,1.6,3.3,0,.3,0,.5,0,.7h-.2ZM35.4,79.4c0,0-.3,0-.4,0-.5-1-1.2-2-2-2.9-.4-.4-.8-.8-1.1-1.2-.2-.2-.3-.3-.3-.5,0-.6.3-1.3,1-1.1.7.2,1.1.8,1.5,1.4h0c.2.3.4.7.5.9,0,.3.3.5.4.8.5.8,1.1,1.8.3,2.7h.1ZM37,77.5h0c0,0-.2,0-.3,0-.6-1.5-1.4-2.9-2.5-4.1h0c0,0,0-.2,0-.4,0-.4.3-.7.7-.6.6.2,1,.7,1.3,1.1.4.7.8,1.5,1.2,2.2.3.6.4,1.5-.3,1.8h0ZM39.9,60.9c-.5.7-1,1.3-1.5,2-.4.6-1,1.3-.9,2.1,0,1.6,1,2.9,1.5,4.4h0c.2.6.2,1.2.2,1.8,0,1.9-.3,3.5-.5,5v.2h0c-.3-2.1-1.3-3.7-3.1-4.9-.2-.2-.5-.3-.8-.3-.7,0-1.2.5-1.5,1.1h-.5c-1.3,0-2.1,1-2.1,2.2h0c-.7.3-1.3,1-1.3,1.8v.8c0,.2.2.5,0,.7-1.1,1.6-.8,3.7,0,5.4.1.3.3.5.5.7h0v.2c-.5,0-.9,0-1.4-.2-1-.7-1.2-1.8-1.2-3s.1-1.9.3-2.8c0-.5,0-.9-.1-1.2-.3-.5-.8,0-.9.3-.5,1.9-.8,3.9-.4,5.8q0,0,0,0c-.7-.5-1.1-1.4-1.1-2.3,0-2,.3-3.8.8-5.7,0-.3,0-.5-.1-.7-.4-.5-.8,0-1,.4-.6,1.9-.9,3.9-.8,5.9h0s0,0-.1,0c-.8-.4-1-1.6-1-2.4,0-1.4.4-2.8.8-4.2,0-.3.1-.6,0-.9,0-.4-.3-.5-.6-.3-.3,0-.4.4-.5.7-.3.9-.5,1.8-.6,2.8,0,.5-.2.5-.3,0-.2-.6-.3-1.2-.3-1.9s.2-1.5.4-2c.1-.4.4-1,.7-1.7,1.1-2.5,2.5-4.8,3.8-7.1.6-1,1.1-2.2,1.6-3.3.5-1.2,1-2.6.8-3.8,0-.5,0-1,.1-1.5.2-.4.9-.7,1.3-.8h0s.1,0,.1.2c-.2,1.5.3,2.7,1.4,3.7,1.6,1.4,3.5,2.1,5.6,2.1s1.8-.2,2.5-.6c.3,0,.5-.3.8-.5h0c.3.6,0,1.2-.5,1.6h0l-.2.2ZM42.6,54.6c0,0,0,.2-.2.3,0,0-.3.2-.5.2-3.7,0-6.9-1.8-9.7-4.1-.2-.2-.3-.4-.2-.6v-.3c.2-.2.3-.3.5,0,2.9,2.5,6.2,4.2,10,4.3h0c.2,0,.3,0,.1.3ZM44,52.8c0,.2-.4.6-.7.6-1.4,0-2.7-.2-4-.6-2.3-.8-4.4-2.2-6.3-3.9,0,0-.2-.3,0-.5,0-.3.2-.5.4-.8h.2c2.4,2.3,5.3,4.1,8.6,4.7.6,0,1.2,0,1.8,0s0,0,0,0,0,.3,0,.4h0ZM45.4,50.4c0,.2-.3.8-.6.8h-.4c-1.6,0-3.1-.3-4.6-.9-1.8-.7-3.4-1.8-5-3.2h0c-.3-.2-.6-.5-.9-.8,0,0,0-.2,0-.3,0-.3.2-.7.4-.9h.2c2.2,2.2,4.9,4.2,7.9,4.9.7.2,1.4.3,2.3.3h.7,0ZM46.4,49.1c-.2.2-.5,0-.7,0-2.5,0-4.8-.8-6.9-2.2-1.3-.9-2.6-2-3.7-3.1,0,0,0-.3,0-.4l.2-.6c0-.2.2-.2.4,0,2,2.1,4.2,3.8,6.8,4.8h0c1.3.5,2.7.7,4.2.7,0,0,0,0,0,0,0,.2-.3.6-.4.7h0ZM48.4,46.1c0,.3-.3.5-.5.7,0,0-.2.2-.3.2-1.3,0-2.6,0-3.7-.3-3-.8-5.7-2.9-7.8-5.3h0s0-.2,0-.3c0-.3.2-.7.4-1h0c1.2,1.3,2.5,2.5,3.8,3.4.8.6,1.7,1.1,2.6,1.4,1.7.8,3.5,1,5.3.9q0,0,0,0h0v.2ZM30.8,65c-.9.6-1.4,1.4-2,2.3h0c0-.6.3-1.1.3-1.7v-1c0-.5-.2-1.2-.8-.9-1.8,1-2.6,2.8-3.6,4.5v.2l.5.4h.1c.7-1.6,1.7-3.2,2.9-4.4h.2q.1,0,.1,0c-.2,1.8-.8,3.4-1.6,5v.4c.3.2.5.4.8.5h.1c.4-.9.8-1.7,1.1-2.3.4-.8.8-1.4,1.1-1.8.2-.3.4-.5.7-.7h.2v.3c-.1,1.1-.3,2.1-.6,3-.3.9-.6,1.8-.9,2.8v.3c.2.2.4.3.5.4h.2c.7-2,1.3-4.1,1.2-6.3,0-.5-.2-1.5-.9-1h.4ZM99.7,54.4h0q0,.3.2.3c1.2,0,2.4,0,3.5,0,.2,0,.4,0,.5,0h0c0-.2,0-.4-.2-.4-.5,0-2-.2-1.8-1,.3-1.2.6-2.5.9-3.7,0-.2.2-.3.3-.3h3.1c0,0,.2,0,.3.2,0,0,0,.3,0,.4.3,1.1.7,2.3,1,3.6.2.7-.9.8-1.3.9h0c0,0-.2,0-.2.3h0c0,.2,0,.3.3.3,1.3,0,2.5-.2,3.8,0h1.9c2.7,0,5.2,0,7.7,0h0c.3,0,.5-.2.5-.4v-3.8c0,0,0-.2-.2-.2s-.3,0-.4.2c-.4,1.2-.8,2.4-1.9,3.1-.8.6-2.5.5-2.5-.9v-12.2c0-.9,1-.8,1.6-.9.2,0,.3,0,.3-.3h0c0-.3,0-.4-.4-.4-1.7.2-3.5.2-5.3,0,0,0-.3,0-.3.2v.2c0,0,0,.2.2.3.5,0,1.4,0,1.4.7v12.7c0,.8-.8.8-1.3,1-1,.3-1.3-.7-1.5-1.4-1.5-5-2.8-9.4-3.9-13.1,0-.3-.2-.5-.3-.7h0c0,0-.4,0-.4,0,0,0-.2.3-.2.5-1.3,4.4-2.6,8.7-3.9,13.1,0,.4-.3.8-.5,1.2-.2.3-.5.5-1,.5s-.3,0-.3.3h0l.2-.2ZM103.4,48.3l1.4-5.1h0l1.4,5.1h0s0,0,0,0h-2.9c0,0,0,0,0,0ZM203,54.5c0,0,.1.2.3.2,1.2,0,2.3,0,3.5,0h.6c0-.3,0-.5-.4-.5s-1.5-.2-1.5-.7h0v-.3c.3-1.3.6-2.5.9-3.6,0-.2.2-.3.4-.3h3.1c.1,0,.3,0,.3.2.4,1.2.7,2.5,1.1,3.9.2.7-.6.8-1.1.9h-.1c-.2,0-.3.3-.2.4,0,0,.1.2.3.2,1.3,0,2.5,0,3.8,0h9.5c.3,0,.4-.2.4-.4v-3.9c0,0-.1,0-.3,0s-.2,0-.3.2c-.5,1.4-1.1,3.3-2.9,3.5-1,0-1.5-.5-1.5-1.5v-11.9c0-.9,1-.8,1.7-.9.2,0,.3,0,.3-.3h0c0-.3-.1-.3-.3-.3-1.8.2-3.5.2-5.2,0h-.1c-.2,0-.3.2-.3.3s0,.2.2.3c.5.2,1.4,0,1.4.8v12.6c0,.9-.7.8-1.3,1-1,.3-1.3-.6-1.5-1.2-1.4-4.6-2.7-9-4-13.3,0-.3-.2-.5-.3-.7,0,0-.2,0-.3,0-.4,0-.5.6-.6,1-1.3,4.4-2.6,8.7-3.9,13-.1.3-.3.7-.5,1.1-.2.3-.6.4-.9.5-.2,0-.3.2-.3.4h0v-.5ZM206.8,48.3l1.4-5.1h.1l1.5,5.1h0s0,0-.1,0h-2.9ZM81.1,55c3.4,0,6.2-3.7,6.2-8.2s-2.8-8.2-6.2-8.2-6.2,3.7-6.2,8.2,2.8,8.2,6.2,8.2ZM81.1,39.4c1.9,0,3.5,3.3,3.5,7.5s-1.6,7.5-3.5,7.5-3.5-3.3-3.5-7.5,1.6-7.5,3.5-7.5ZM133.8,47.6c.2-3.1-.7-6.3-3.5-7.9-1-.6-2.1-.9-3.2-.9-1.8,0-3.7,0-5.6.6-.2,0-.4.2-.6.3,0,0,0,.3,0,.4,0,0,0,0,.2,0h1c.4,0,.7.2.7.6h0v11.9c0,.6-.2,1.3-.9,1.4h-.7s-.2,0-.2,0c0,0,0,.3,0,.3,0,0,.2.2.3.2h3.3c1.4,0,2.8.2,4.1,0,3.2-.7,5-3.8,5.2-7h0ZM129.4,52.8c-.6.7-1.2,1.1-2,1.2-1.2,0-2.3-.3-2.3-1.7v-11.7c0-.6.4-1.1,1-1.2h0c1.6-.3,3,.7,3.8,2.1.8,1.3,1.1,2.9,1.2,4.5.1,2.3-.1,5-1.6,6.8h0ZM165.9,40.7h0v11.7c0,.6-.1,1.4-.8,1.5h-.8c-.1,0-.2,0-.3.2v.4s.1,0,.2,0h2.3c1.4,0,2.9,0,4.3,0,1.1,0,2.1-.4,3-1,2.7-1.8,3.5-5.6,3.1-8.6-.4-3-2.1-5.3-5.1-6.2-.8-.2-1.7-.3-2.9-.3s-3,.3-4.4.6c-.2,0-.4,0-.5.2-.1,0-.1.2,0,.4.3.5,1.9-.5,1.9.8h0v.2ZM168.3,40.7c0-1.7,2.1-1.4,3-.9,1.4.8,2.2,2.5,2.6,4h0c.5,2.1.5,4.2,0,6.2-.4,1.6-1.3,3.3-2.8,3.8-.7.2-1.3.2-1.8,0-.8-.3-1-1.1-1-1.9v-11.1h0ZM184.5,55c3.4,0,6.2-3.7,6.2-8.2s-2.8-8.2-6.2-8.2-6.2,3.7-6.2,8.2,2.8,8.2,6.2,8.2ZM184.5,39.4c1.9,0,3.5,3.3,3.5,7.5s-1.6,7.5-3.5,7.5-3.5-3.3-3.5-7.5,1.6-7.5,3.5-7.5ZM237,44.4c-.2-.7-.4-1.3-.6-1.7-1.2-2.7-3.7-4-6.6-4s-2.4,0-3.4.3c-.5,0-1.9.3-2.2.7v.2c0,0,.1.2.3.2h1c.3,0,.6.2.6.6h0v11.8c0,.6,0,1.4-.8,1.5h-.8c-.1,0-.2,0-.2,0v.3c0,.2.2.2.3.2,1.5,0,3-.2,4.5,0h2.3c1.9-.2,3.4-1.2,4.6-2.9.6-.9.9-1.9,1.2-2.9.2-.5.3-1,.3-1.4,0-1.1,0-2-.3-3h-.2ZM234.3,49.2c-.3,2.1-1.5,4.8-4,4.7-1.4,0-1.8-.9-1.8-2.2v-10.9c0-1.4,1.2-1.6,2.4-1.3h0c2,.6,3,2.9,3.4,4.7.3,1.7.3,3.3,0,5h0ZM62.8,54c-.2,0-.3,0-.3.3s0,.2.4.3h.2c1.8,0,3.5,0,5.1,0h.4c0-.3,0-.4-.2-.5-.9-.4-1.8,0-1.8-1.6v-4.9c0-.3,0-.4.2-.5.6-.3,1.1,0,1.4.5,1.1,2.4,2.1,4.6,3.1,6.7,0,.2.3.3.5.3.5,0,1,0,1.4,0,.5,0,1,0,1.5,0h0c.2,0,.2-.3,0-.4h0c-.9,0-1.2-.8-1.6-1.6-.7-1.6-1.4-3.2-2.2-4.9-.2-.4-.5-.6-.8-.8h0c-.4,0-.3-.2,0-.3,2.4-.4,3.8-2.3,3.2-4.8-.4-1.7-2-2.8-3.7-2.8h-6.5c-.2,0-.4,0-.5.2s0,.3,0,.4h.2c.6,0,1.3,0,1.3.9v12.4c0,.6-.4.9-1.3,1h0ZM66.6,40.9c0-.8.5-1.1,1.2-1.1,2.2,0,3.2,2.1,2.9,4.1-.3,2-1.8,2.6-3.7,2.5-.3,0-.5-.2-.5-.5v-5h0ZM88.2,54.7h.5c.7,0,1.4,0,2,0h1.6c.5,0,.2,0,.2-.2h0c0-.3,0-.4-.3-.4-1-.2-1.7-.3-1.7-1.5v-10.3h0q0-.3.2,0c2.3,4.1,4.6,8.3,6.9,12.4.2.4.9.5.9-.2v-13.8c0-.3,0-.6.3-.7.3-.2.7-.2,1-.3,0,0,.2-.2.2-.3s0-.2,0-.2c0,0-.2,0-.3,0-1.1.2-2,0-3,0h-.2c-.5,0-.6.3-.4.5,0,0,0,0,.2,0,.3,0,.7,0,1,.2.6.3.6,1.1.6,1.7v8.4h0s0,0,0,0c0,0-.2,0-.2-.2-1.8-3.5-3.7-6.9-5.5-10.4,0-.2-.3-.4-.5-.4-.9,0-1.8,0-2.7,0h-.4c0,0,0,.3,0,.4.4.4,1.5,0,1.5,1v12.7c0,1.3-1.6.6-1.7,1.2,0,0,0,.3.2.3h-.2ZM140.3,54.7c1.4,0,2.8-.2,4.1,0h.3c0-.3,0-.4-.2-.5-.8-.2-1.7-.2-1.7-1.3,0-3.5,0-6.9.2-10.5q0-.4.2,0c1.3,4,2.6,7.9,3.8,11.9,0,0,.1.3.3.3s.3,0,.4,0c.1-.3.2-.5.3-.8,1.3-4.2,2.5-8.1,3.7-11.5h0c.1,3.5.2,7.1.2,10.8s-.9.9-1.7,1.1c-.1,0-.2,0-.2.3h0q0,.3.3.3c1.8,0,3.6,0,5.2,0h.5c0-.3,0-.4-.3-.5-.4,0-1-.2-1.2-.6v-4.8c0-2.7-.1-5.5-.2-8.3,0-.8.9-.7,1.4-.8.1,0,.2,0,.2-.2v-.2c0-.2-.2-.3-.4-.3-1.1,0-2.2.2-3.2,0-.3,0-.6,0-.7.3-1.1,3.1-2.1,6.2-3.1,9.3,0,0-.1.3-.1.5,0,.3-.2.3-.3,0l-3-9c-.1-.4-.3-1.2-.9-1.1-1,0-2,0-3.1,0h-.2c-.3,0-.4.2-.4.4s.1.3.3.3c.5,0,1.5,0,1.4.7-.1,4.4-.3,8.6-.5,12.7,0,1-.9.8-1.5,1.1-.2,0-.2.2-.1.4,0,0,.1,0,.3,0h-.1ZM195.9,54.7h0c0-.4,0-.5-.3-.6-.9-.2-1.7-.3-1.7-1.4v-10.4h.1c2.2,4.1,4.5,8.2,6.8,12.5.1.2.3.4.4.4.4,0,.6,0,.6-.5v-13.7c0-.4.1-.6.3-.8.3-.2.6-.2.9-.3.1,0,.3-.2.3-.3h0c0-.3-.2-.4-.4-.4-1,0-2,.2-3,0-.3,0-.4,0-.6.2h0c0,.3,0,.4.3.4s.7,0,1,.3c.4.3.5.9.5,1.4v8.7h-.1c-1.8-3.4-3.7-6.9-5.6-10.4,0,0-.1-.2-.2-.3,0,0-.2-.2-.4,0-.8,0-1.7,0-2.6,0-.2,0-.6,0-.6.3s0,.2.2.3c.3,0,.6.2.9.2s.5.3.5.6v11.5c0,.6,0,1.1-.2,1.4-.3.8-1.3.3-1.6.8h0c0,.2,0,.3.1.4h.5c1.1,0,2.2,0,3.3,0h.5v-.2ZM158.5,53.9c1,.9,2.2,1.1,3.6.8.5,0,1.4-.4,1.5-1v-2.6h0c0-.2-.2-.2-.3,0-.1,0-.2.2-.3.4-.1.7-.3,1.2-.5,1.8-.3.8-1,1.4-1.9,1-2.5-1-2.2-6.1-1.8-8.1s.8-2,1.9-2.2c.7,0,1.1.3,1.4.9h0c.2.5.4,1,.6,1.4,0,0,.1.3.3.4h.1c.2,0,.3,0,.3-.4v-2.1c0-.2,0-.3-.3-.4-2.6-1.2-5.2,0-6.1,2.7-.8,2.4-.5,5.6,1.5,7.3h0v.2ZM192.8,57.4c-.3.4-.5.9-1.1.9h-6.7c-.5,0-.6-.5-.8-.9h0c0,0-.3,0-.4,0-.1,0-.2.2-.2.4-.3,1.5-.5,3.1-.7,4.6,0,0,0,.2.1.2.2,0,.3,0,.4-.2.3-.7.7-1.3,1-1.9.6-.9,1.3-1.5,2.4-1.3,0,0,.1,0,.1,0h0v13.1c0,.4-.2.7-.7.8-.4,0-.7,0-1.1.2-.2,0-.3,0-.3.3h0q0,.3.3.3c2,0,4,0,5.8,0,.2,0,.4,0,.4-.3h0c0-.2-.1-.3-.3-.4-.8-.2-1.8,0-1.8-1.2v-12.7c0-.2.1-.3.3-.3,1,0,1.6,0,2,.9.3.7.5,1.5.8,2.3,0,.2.4.4.5,0h0c.1-1.6.2-3.1.4-4.6v-.4c0-.3-.4-.3-.6,0h.2ZM182.3,73.3c-.4,0-.8-.2-1.1-.3s-.6-.3-.6-.7v-12.6c0-1,1-.8,1.6-1,.2,0,.3,0,.3-.3h0c0-.2,0-.3-.3-.3-1.9,0-3.7,0-5.7,0-.1,0-.3,0-.3.3h0c0,.2.1.3.3.3.4,0,1.1,0,1.4.3.3.2.3.7.3,1v11.6c0,.6,0,1.2-.8,1.4-.4,0-.7,0-1,.2-.7.2-1.2-.8-1.5-1.3-.7-1.8-1.5-3.4-2.2-4.9-.3-.6-.6-.9-1.1-1h0c0,0,.1,0,.2,0,1.6-.3,3.2-1.4,3.4-3.1.3-2.5-1.4-4.6-4-4.6h-6.2c-.2,0-.4,0-.6,0-.1,0-.1.2,0,.4,0,0,.1,0,.2,0,.6,0,1.4,0,1.4.9v12.3c0,.9-.6,1-1.3,1.2h-.5c-.8,0-1-.7-1.2-1.4-1.3-4.1-2.5-8.2-3.6-12.2-.1-.5-.4-1.6-.7-1.8h-.4c-.1.2-.2.4-.3.6-1.2,3.9-2.3,7.8-3.5,11.8-.3.9-.6,1.7-.8,2.4-.3.6-.9.8-1.5.6-.4,0-1-.4-1-.9v-13.1c.2-.2.5-.3,1.1-.4.2,0,.3,0,.4-.3,0,0,0-.2-.3-.3h-.1c-1.6,0-3.2,0-4.7,0h-.1c-.4.2-.4.4,0,.6h.7c.3,0,.5.4.5.7v5.1c0,.2-.1.3-.3.3h-4.2c-.3,0-.4,0-.4-.4v-4.9c0-.5.5-.8,1.5-.9.1,0,.2,0,.3-.2v-.2s-.1,0-.2,0c-1.7,0-3.3,0-5,0-.1,0-.3,0-.4,0h0v.4h.1c.5,0,1.2,0,1.2.8v12.3c0,4.1,0,.6-.1.8-.1.3-.5.4-1.1.5-.2,0-.4.2-.4.4h0c0,.3.2.3.4.3,1.6,0,3.2,0,4.9,0,.3,0,.4,0,.4-.3s0-.3-.2-.3c-.3,0-.7-.3-1.1-.4-.3,0-.4,1.3-.4-.7v-6.2c0,0,.1-.3.3-.3h4.4c.1,0,.3,0,.3.3v6.1c0,.4-.1.7-.4.8-.3.2-.7.2-1.1.3-.1,0-.2,0-.2.3h0c0,.3.2.4.4.4,1.6,0,3.2,0,4.9,0h3.9c.2,0,.3,0,.5,0h0c0-.2,0-.4-.2-.4-.3,0-.5,0-.7,0-.3,0-1.1-.4-1-.8.3-1.2.6-2.4.9-3.7,0-.2.2-.4.4-.4h2.9c.2,0,.4,0,.4.3l1.1,3.9h0c0,.3-.1.6-.4.6l-1,.2s-.1,0-.1,0v.2c0,.2.2.2.4.2,1.4,0,2.9,0,4.3,0h1.6c1.6,0,3.2,0,4.8,0,.1,0,.2,0,.3-.2,0-.2,0-.4-.3-.4-.8-.2-1.7-.3-1.7-1.4v-5.2c0,0,0-.3.2-.3,1.1-.4,1.3.4,1.6,1.1.9,2,1.8,4,2.8,6.1.1.3.3.4.6.3.7,0,1.3,0,1.8,0,.5,0,.9,0,1.2,0,1.9,0,3.8,0,5.6,0,.2,0,.3,0,.4-.2h0c0-.2,0-.4-.2-.4h0ZM158.9,67.4s0,0-.1,0h-2.9c0,0,1.4-5.2,1.4-5.2h.1l1.4,5h.1ZM168.6,65.6c-.3,0-.4-.2-.4-.4v-5.1c0-.6.3-.9.8-1,1.4-.3,2.5.4,3.1,1.7h0c.3.8.4,1.6.2,2.5-.4,2-1.9,2.4-3.7,2.3h0ZM83,57.9c-3.4,0-6.2,3.7-6.2,8.2s2.8,8.2,6.2,8.2,6.2-3.7,6.2-8.2-2.8-8.2-6.2-8.2ZM83,73.5c-1.9,0-3.5-3.3-3.5-7.5s1.6-7.5,3.5-7.5,3.5,3.3,3.5,7.5-1.6,7.5-3.5,7.5ZM108.7,65.2c-1-.7-1.9-1.4-2.8-2.1-.7-.5-1.1-1.1-1.1-1.9,0-1.5.8-2.9,2.5-2.7.6,0,1,.4,1.3.9.5.8.7,1.8,1.1,2.7,0,.3.3.4.7.3h0v-3.5c0-.2,0-.3-.2-.4-.8-.4-1.9-.5-2.7-.5-2.5,0-4.8,1.5-4.7,4.1,0,2.8,2.3,3.9,4.3,5.2,1.5,1,2.6,2.3,2.2,4.3-.3,1.4-1.8,2.2-3.2,1.8h0c-.7,0-1.2-.6-1.6-1.3-.4-.8-.7-1.7-.9-2.6,0-.2,0-.3-.3-.4h0c-.3,0-.5.2-.5.6,0,1,0,2.1,0,3.3s0,.3,0,.4c.3.4.9.6,1.3.8,1.4.4,2.8.4,4,0,1.8-.6,2.9-2.1,3.2-3.9.2-2.1-1-3.6-2.6-4.8h0v-.3ZM138.2,68.6h-.1c-.1,0-.3.3-.3.4-.2.8-.4,1.7-.7,2.5-.4,1.4-1.7,2.5-3.2,1.6h0c-1.2-.8-1.9-2.4-2.2-3.7-.5-2.2-.5-4.6,0-7.2.3-1.8,1.3-3.8,3.5-3.6,1.6,0,1.7,2.8,2.5,3.8.1,0,.3.2.5,0,.1,0,.2-.2.2-.4v-3c0-.5-.6-.7-1-.8-4-1.3-7.3,1-8.3,4.9-.7,3-.3,6.6,1.7,9,1.8,2.1,4.4,2.5,7,1.5.7-.3,1-.6,1-1.4v-3.2c0-.3-.1-.5-.4-.5h-.2ZM218.2,65.3c-1-.7-2-1.5-3-2.2-.6-.5-1-1.1-1.1-1.8-.1-1.2.4-2.6,1.7-2.8,1.1-.2,1.9.3,2.3,1.3.3.7.6,1.5.8,2.2,0,.3.2.4.5.4s.4-.2.4-.4v-3.2c0-.2,0-.4-.3-.4-.9-.4-2.4-.5-3.3-.5s-2.2.5-3,1.3c-1.7,1.7-1.5,4.3.2,5.9,1,1,2.4,1.7,3.5,2.5,1.3.9,2.1,2.2,1.8,3.8h0c-.2,1-1,1.8-2,2-2.4.4-3.3-2.1-3.7-4.1-.1-.6-.8-.6-.9,0-.2,1.1-.1,2.3-.1,3.4s.7,1,1.2,1.1c2.4.8,5.1.4,6.6-1.7.6-.9.9-2,.8-3.2-.1-1.5-1.3-2.7-2.4-3.5h0ZM75.7,73.3c-.3,0-.6-.2-.8-.3-.7-.3-.6-.7-.6-1.4v-12.1c0-.2,0-.4.3-.4.3,0,.6-.2.9-.2s.3-.2.3-.4c0,0,0,0,0,0h-.3c-1.5,0-3.1,0-4.7,0h0c-.2,0-.3.2-.3.3,0,.2,0,.3.3.3.5,0,1.3,0,1.3.7v5c0,.3,0,.4-.4.4h-4.2c-.3,0-.4,0-.4-.4v-4.6c0-1.1.7-1.1,1.6-1.3h0c0,0,0-.3,0-.4s-.2,0-.3,0c-1.7,0-3.3,0-4.9,0,0,0-.3,0-.4,0s0,0,0,0c0,.2,0,.3.2.3.6,0,1.2,0,1.2.9v12.5c0,.6-.4.9-1.3,1.1h-.2s0,.2,0,.3c0,.2.2.3.3.3,1.7,0,3.3,0,4.8,0h.4c.3,0,.2-.5,0-.6-.5,0-1.4-.3-1.4-1v-6.2c0,0,0-.2.2-.2h4.6s0,.2,0,.3v6c0,.5-.2.8-.5,1-.3,0-.6,0-.9.2-.2,0-.3,0-.2.3h0c0,.3,0,.4.3.4,1.7,0,3.4,0,5,0,.2,0,.3,0,.4-.2,0,0,0-.3-.2-.4h0v-.3ZM101.8,58.2c-1.1,0-2.2,0-3.2,0-.2,0-.3,0-.5,0h0c0,.8,1.3.3,1.6,1,0,.3.2.6.2,1v9.5c0,3.2-1,3.3-2.8,3.3s-2.5-.5-3-1.7c-.2-.4-.3-1.2-.3-2.1v-9.5c0-.8.7-1,1.5-1.1h0s0,0,.2,0c.2,0,.2-.2.2-.3s-.2-.2-.4-.2c-1.6,0-3.3,0-5,0h0c-.2,0-.3.2-.2.3,0,.6,1.4,0,1.4,1v11c0,1.4.5,2.7,1.9,3.2,1.1.5,2.3.6,3.4.5,2.1,0,3.4-1.4,3.8-3.4,0-.4,0-.7,0-.8v-10c0-.4,0-.7.4-.9.3-.3.6-.2,1-.3.2,0,.3,0,.4-.3v-.2c0-.2-.3-.2-.5-.2h0l-.2.2ZM121.8,69.3c-.2,0-.3,0-.3.2-.8,2.2-1.3,3.9-4.1,3.6-1.3,0-1.3-1.1-1.3-2.3v-4.8c0,0,0-.3.3-.3h1.7c.6,0,.9.3,1.1.8,0,.5.3,1,.4,1.4,0,0,0,.2.2.3h0c.2,0,.4,0,.4-.3v-.6c0-1.1,0-2.4,0-3.8v-.6h0c-.2-.2-.4,0-.5.1-.3.8-.5,1.7-1.6,1.8h-1.8s0,0,0-.2v-5.3c0-.3,0-.5.5-.5,1.4,0,2.9,0,3.7,1.2.3.5.6,1.1.8,1.8,0,.3.4.5.6.2v-3.7c0,0,0-.2-.2-.2h-.6c-2.8,0-5.6,0-8.4,0h-.4v.5h0c.6,0,1.4,0,1.4.9v12.3c0,.9-.7,1-1.5,1.1-.2,0-.3,0-.3.3h0c0,.3.2.4.4.4,3.2,0,6.4,0,9.3,0,.3,0,.5,0,.5-.4v-3.9c0-.2,0-.3-.2-.3h0v.3ZM200.1,73.3c-.6,0-1.7,0-1.7-1v-12.6c0-.8,1-.8,1.6-.9.2,0,.3,0,.3-.3h0c0-.2,0-.3-.2-.3h-5.8c-.1,0-.2,0-.3.2h0c0,.2,0,.4.2.4.6,0,1.7,0,1.7,1v12.4c0,4.2-.2.7-.7.8h0c-.4,0-.7.2-1,.2s-.3.2-.3.3h0c0,.3.1.4.3.3,1.9,0,3.8,0,5.6,0,.2,0,.3,0,.4-.3v-.2s-.1,0-.2,0h0ZM210.7,69.3c-.2,0-.3,0-.4.3-.7,2.2-1.4,3.9-4.1,3.5-1,0-1.3,0-1.3-1.7v-5.4s0-.2.1-.2h1.9c.5,0,.8.3,1,.8s.3,1,.4,1.5c.1.5.7.5.7,0v-2.4c0-.8,0-1.5.1-2.3,0-.2-.1-.3-.3-.3s-.3,0-.4.2c-.3.8-.6,1.8-1.7,1.8h-1.8c-.1,0-.2,0-.2-.2v-5.3c0-.5.5-.5.9-.5,1.5,0,2.8,0,3.5,1.7.2.5.4,1,.6,1.5,0,0,.2.2.3,0,.2,0,.3-.2.3-.4v-3.4c0-.2-.1-.3-.3-.3h-.7c-2.7,0-5.5,0-8.3,0h0c-.2,0-.3.2-.3.3h0c0,.2.1.3.2.3.5,0,1.4,0,1.4.8v12.6c0,.7-.9.9-1.4.9s-.3,0-.3.3h0c0,.3.2.4.4.4,3.2,0,6.2,0,9.3,0,.3,0,.5,0,.5-.4v-3.9c0,0,0-.2-.2-.2h0ZM56.8,40.8h-.3c-1.3-1-2.7-2.1-4.3-3.3-1.8-1.4-3.5-2.8-5-4.5-.2-.2-.3-.4-.3-.6v-.9c0-.4.2-.8.2-1.2v-.4c.4-.9.7-1.8.9-2.9.4-2.1.8-4.5,2.6-5.8v-.2c-.2-.3-.5-.6-.9-.7s0,0,0,0c-.5.7-1.4.6-2.1.5h-.7c-.2,0-.4,0-.5-.1,0,0-.3-.2-.4-.3h0c-.4-.4-.8-.7-1.1-1-.4-.3-.7-.4-1.1-.2-.7.3-1,2-1.1,2.8,0,.9-.2,1.7-.3,2.5s-.4,1.5-.8,2.1h-.2c-1.3-.9-2.5-1.9-3.7-2.9-1.1-.9-2.6-1.9-3.9-2.9-1.6-1.3-3.4-2.5-4.2-4.5v-.2c.4-.7.8-1.4,1.3-2.1h0c-1-.3-1.2.8-2,1.1-.3.1-.4-.2-.5-.3h-1.2c-.1.4-.2.8-.3,1.2,0,.5.3.7.7.8h0c0,.3-.1.4-.2.6-.3.9-.8,1.6-1.5,2.2-.1.1-.2.2-.3.4-1.2,1.7-2.6,3.2-4.1,4.6-1.5,1.3-3.1,2.7-4.9,4.2-.6.5-1.4,1.3-2.6,2.5-.2.2-.4.3-.6.5-.6.4-1.2.8-1.7,1.3-.5.6-1.1,1.3-1.7,2-.4.5-.9,1-1.4,1.3-.3.3-.6.5-.9.8-.7.7-1.3,1.4-2,2.1-.5.5-.8,1-1.1,1.5,0,0,0,0-.2,0-.3,0-1,0-1.2.2h0c.2.9-.5,1.5-1,2-.2.2-.5.5-.5.8v.5c0,.8,1.3.4,1.3,1.1.4,3.2.7,6.3.4,9.3v1.3c0,1.3,0,2.6-.2,3.9-.3,2-.7,3.9-.8,5.9,0,.3-.2.5-.2.8-.2,2.4-.3,4.7-.4,6.7-.1,3.3-.2,6.6-.3,10,0,.3,0,.7-.1,1-.5,1.4-.2,3,0,4.5.1.9,0,1.7-.4,2.6v.4c.4.4.7,0,1.1,0h.4l.2.2h1.2c.3,0,.6,0,.7-.3h.2c2.4.3,4.8.5,7.2.6h2c3,0,5.9-.2,8.9-.4h.7c2.4.6,4.9,1,7.6,1s6.7,0,10.3-.4c1.7-.2,3.5-.4,5.1-.5h.9c2.5.4,5.1.6,7.7.6h.7c0-.5.3-1,.6-1.4v-.3c0-.1,0,0,0,0h-.3c0,0,0,0,0,0-.3,0-.6-.3-.7-.5v-.6c0-1.9,0-3.8.2-5.8v-3.9c.2-.6.3-1.2,0-1.8v-.2c.2-.9.3-1.8.2-2.7,0-1.7-.4-3.4-.3-5v-.7c0-.4.3-.9.2-1.3-.7-1.6-.9-3.2-.8-4.9,0-1.2.2-2.6.4-4.1,0-1.2,0-2.4,0-3.5v-.6c0-.3.5-1,.2-1.3,0,0,0-.2-.2-.2v-.2c.5-2.1.7-4.3.8-6.5,0-1.6.4-3.1.8-4.6h0c0,0,.6-.4.6-.4h0v-.2c-.2-.3-.5-.7-.9-.6h0l.2-.7ZM42.4,27.2c.3-1,.5-2.2.8-3.4.2-1,.4-1.8.6-2.4,0-.2.2-.3.3-.3.8,0,1.6.5,2.2,1,.5.3,1,.4,1.5.2,0,0,.2,0,.3-.1h0c0,.6-.2,1.3-.3,2,0,.8-.3,1.5-.9,2.1v.2c-.3,1.3-.6,2.6-.9,3.9,0,.2-.2.3-.4.2s-.3-.3-.4-.4c-.2-.5-.8-1-1.3-1.3-.4-.2-.7-.4-1-.7-.2-.2-.7-.7-.6-1.1h.1ZM54.4,47.7c0,.3,0,.5,0,.7,0,.6,0,1.1-.3,1.7-.3.6-.7,1.6-.4,2.2v.3h-.2v.2c0,2.2,0,4.3-.4,6.3,0,.4-.2.9-.4,1.4v.4c0,.3,0,.7,0,1.1v2c0,.8.2,1.5.5,2.2v11.3c0,2.3,0,4.6-.2,6.8v.9c0,1.3,0,2.6-.2,4.1,0,.5-.6.3-.9.3s0,0,0,0c0,0-.2.3-.3.4-.2,0-.4,0-.5-.3-.2-.3-.6-.4-.9-.3-.5,0-.9,0-1.4,0h-.7c-1.7.2-3.5.5-5.2.7-.6,0-1.1,0-1.6.2-.8,0-1.5,0-2.2,0h-5c-2.3,0-4.5-.2-6.7-.5-.3,0-.4-.3-.6-.3-1.4-.3-2.9-.4-4.4-.2-1.1,0-2.1.2-3.1.3-.6,0-1.2.3-1.9.3-2.2.2-4.3,0-6.5-.2h0c-.6,0-1.3,0-2,0,0,0-.2,0-.2,0-.3-.3-1.3-.3-1.7-.3s-.4,0-.6.2h-.3c-.3-.2-1-.2-1.3,0-.3.2-1,0-1.4-.2,0,0-.2,0-.2-.2,0-2.8,0-5.6.2-8.4,0-3.7.3-7.2.5-10.4v-1.2c.3-5.2.7-10.8,1.2-16.9v-.7c-.3-1.1-.4-2.2-.5-3.2v-2.5c0-1.1.2-2.3.5-3.5,0-.3,0-.5.4-.7.4-.3.8-.6,1-.9.5-.7,1.1-1.3,1.6-2,.4-.4.8-.9,1.5-1.3.2,0,.3-.3.5-.4.8-1,1.5-1.9,2.3-2.7,3.4-3.6,7.5-6.5,11-10s3.3-3.8,4.5-5.9c.2-.3.6-.7,1-.5.6.2,1,.7,1.4,1.1s.9.6,1.3,1c.5.4,1,.9,1.5,1.3.6.5,1.3.9,2,1.3h0c0,.1,0,.2,0,.3,0,.3.5.6.8.8.5.3.9.9,1.3,1.2.5.5,1.1.9,1.7,1.4.3.3.5.6.9.8,2.2,1.5,3.9,3.7,5.2,6.1,0,0,0,.2.2.3,1,.7,1.9,1.4,2.8,2.2,1.4,1.2,2.6,2.3,3.8,3.3.8.7,1.7,1.3,2.6,1.9,0,0,0,0,0,.3-.3,1.9-.2,3.9,0,5.9v.4Z"/>
</svg>