<?xml version="1.0" encoding="utf-8"?>
<!-- Generator: Adobe Illustrator 28.0.0, SVG Export Plug-In . SVG Version: 6.00 Build 0)  -->
<svg version="1.1" id="_レイヤー_1" xmlns="http://www.w3.org/2000/svg" xmlns:xlink="http://www.w3.org/1999/xlink" x="0px"
	 y="0px" viewBox="0 0 110 40" style="enable-background:new 0 0 110 40;" xml:space="preserve">
<style type="text/css">
	.st0{fill:#999999;}
</style>
<path class="st0" d="M54.3,21.4h1.6c0,0.9-0.4,1.6-1.1,2.1s-1.3,0.8-2.3,0.8c-1.1,0-2-0.4-2.5-1.1c-0.7-0.7-0.9-1.7-0.9-3.2
	s0.3-2.5,0.9-3.2s1.5-1.1,2.7-1.1c0.9,0,1.6,0.3,2.3,0.8c0.7,0.5,0.9,1.2,0.9,2h-1.6c0-0.5-0.3-0.8-0.5-1.1
	c-0.3-0.3-0.7-0.4-1.1-0.4c-0.7,0-1.1,0.3-1.5,0.7c-0.3,0.5-0.5,1.2-0.5,2.1c0,1.2,0.1,2,0.5,2.4c0.4,0.5,0.8,0.8,1.5,0.8
	c0.4,0,0.8-0.1,1.1-0.4C54.1,22.3,54.2,21.9,54.3,21.4L54.3,21.4z M57.1,15.8h1.5v3.5c0.4-0.7,0.9-1.1,1.7-1.1
	c0.7,0,1.1,0.1,1.5,0.5c0.4,0.4,0.5,1.1,0.5,2v3.3h-1.5v-3.5c0-0.9-0.4-1.5-1.1-1.5c-0.4,0-0.7,0.1-0.9,0.4
	c-0.3,0.3-0.3,0.8-0.3,1.5v3.1h-1.5V15.8L57.1,15.8z M63.8,19.9c0-0.7,0.3-1.1,0.7-1.3c0.4-0.3,1.1-0.4,1.7-0.4s1.5,0.1,1.9,0.5
	c0.4,0.3,0.7,0.9,0.7,1.6v2.1c0,0.7,0,1.2,0.1,1.6h-1.5l-0.1-0.7c-0.3,0.3-0.5,0.5-0.8,0.7c-0.3,0.1-0.5,0.1-0.9,0.1
	c-0.7,0-1.1-0.1-1.5-0.5c-0.3-0.3-0.5-0.8-0.5-1.3c0-0.7,0.3-1.2,0.7-1.5c0.4-0.4,1.3-0.5,2.5-0.5H67v-0.4c0-0.3-0.1-0.4-0.3-0.7
	c-0.1-0.1-0.4-0.3-0.8-0.3c-0.7,0-0.9,0.3-0.9,0.8L63.8,19.9L63.8,19.9z M67.1,21.3c-0.9,0-1.5,0.1-1.7,0.3
	c-0.3,0.3-0.4,0.4-0.4,0.8c0,0.3,0.1,0.5,0.3,0.7c0.1,0.1,0.4,0.3,0.7,0.3c0.4,0,0.7-0.1,0.9-0.4c0.1-0.3,0.3-0.7,0.3-1.2L67.1,21.3
	L67.1,21.3z M69.9,18.3h1.5v0.9c0.3-0.4,0.4-0.7,0.7-0.8c0.3-0.1,0.7-0.3,0.9-0.3c0.4,0,0.7,0.1,1.1,0.3c0.3,0.1,0.5,0.4,0.7,0.8
	c0.4-0.7,0.9-1.1,1.7-1.1c0.5,0,1.1,0.1,1.5,0.5c0.4,0.4,0.5,0.9,0.5,1.6v3.7h-1.5v-3.6c0-0.5-0.1-0.9-0.3-1.1
	c-0.1-0.1-0.4-0.3-0.7-0.3c-0.4,0-0.7,0.1-0.8,0.4c-0.3,0.3-0.3,0.8-0.3,1.3v3.1h-1.5v-3.5c0-0.5-0.1-0.9-0.3-1.1
	c-0.1-0.3-0.4-0.4-0.7-0.4c-0.4,0-0.7,0.1-0.8,0.4c-0.1,0.3-0.3,0.8-0.3,1.3v3.1H70L69.9,18.3L69.9,18.3z M81.8,19
	c0.3-0.4,0.5-0.5,0.8-0.7c0.3-0.1,0.5-0.1,0.9-0.1c0.7,0,1.3,0.3,1.7,0.8s0.7,1.2,0.7,2.3c0,0.9-0.3,1.7-0.7,2.3
	c-0.4,0.5-0.9,0.8-1.7,0.8c-0.3,0-0.5,0-0.8-0.1c-0.3-0.1-0.5-0.3-0.8-0.5v2.7h-1.5v-8H82L81.8,19L81.8,19z M81.8,21.3
	c0,0.7,0.1,1.2,0.4,1.5c0.3,0.3,0.5,0.5,0.9,0.5c0.4,0,0.7-0.1,0.9-0.5c0.3-0.4,0.4-0.9,0.4-1.6c0-0.5-0.1-1.1-0.3-1.3
	c-0.3-0.4-0.5-0.5-0.9-0.5c-0.4,0-0.7,0.1-0.9,0.5C82,20.1,81.8,20.6,81.8,21.3L81.8,21.3z M87,15.8h1.6v1.5H87
	C87,17.3,87,15.8,87,15.8z M87,18.3h1.5v5.7H87V18.3z M89.7,21.1c0-0.9,0.3-1.6,0.7-2.1c0.5-0.5,1.2-0.8,2.1-0.8s1.6,0.3,2,0.8
	s0.7,1.3,0.7,2.3s-0.3,1.6-0.7,2.3c-0.5,0.5-1.2,0.8-2,0.8s-1.6-0.3-2-0.8C90,22.9,89.7,22.2,89.7,21.1L89.7,21.1z M91.1,21.1
	c0,1.3,0.4,2,1.3,2s1.3-0.7,1.3-2s-0.4-2-1.3-2S91.1,19.8,91.1,21.1z M96.7,24.1v-5.7h1.5v0.9c0.3-0.7,0.9-1.1,1.7-1.1
	c0.7,0,1.1,0.1,1.5,0.5c0.4,0.4,0.5,0.9,0.5,1.7v3.6h-1.5v-3.3c0-1.1-0.4-1.6-1.1-1.6c-0.4,0-0.7,0.1-0.9,0.4
	c-0.3,0.3-0.3,0.8-0.3,1.3v3.1L96.7,24.1L96.7,24.1z M49,30.3H50v-0.9c0-0.5,0.1-1.1,0.4-1.3s0.8-0.4,1.5-0.4c0.3,0,0.4,0,0.8,0v0.9
	c-0.3,0-0.5,0-0.7,0c-0.3,0-0.4,0.1-0.4,0.3c-0.1,0.1-0.1,0.4-0.1,0.7v0.8h1.2v1.1h-1.2v4.8H50v-4.8H49V30.3L49,30.3z M53.1,33.2
	c0-0.9,0.3-1.6,0.7-2.1c0.5-0.5,1.2-0.8,2.1-0.8c0.9,0,1.6,0.3,2,0.8s0.7,1.3,0.7,2.3c0,0.9-0.3,1.6-0.7,2.3c-0.5,0.5-1.2,0.8-2,0.8
	s-1.6-0.3-2-0.8C53.4,35,53.1,34.2,53.1,33.2L53.1,33.2z M54.6,33.2c0,1.3,0.4,2,1.3,2c0.9,0,1.3-0.7,1.3-2s-0.4-2-1.3-2
	C55,31.2,54.6,31.9,54.6,33.2L54.6,33.2z M59.9,36v-5.7h1.5v0.9c0.3-0.4,0.5-0.7,0.8-0.9c0.3-0.1,0.5-0.3,0.8-0.3v1.6
	c-0.7,0-1.1,0.1-1.2,0.4c-0.3,0.3-0.4,0.7-0.4,1.2V36H59.9L59.9,36z M72.5,33.4h1.6c0,0.9-0.4,1.6-1.1,2.1c-0.7,0.5-1.3,0.8-2.3,0.8
	c-1.1,0-2-0.4-2.5-1.1c-0.7-0.7-0.9-1.7-0.9-3.2c0-1.5,0.3-2.5,0.9-3.2c0.7-0.8,1.5-1.1,2.7-1.1c0.9,0,1.6,0.3,2.3,0.8
	s0.9,1.2,0.9,2h-1.6c0-0.5-0.3-0.8-0.5-1.1c-0.3-0.4-0.7-0.5-1.1-0.5c-0.7,0-1.1,0.3-1.5,0.7c-0.3,0.5-0.5,1.2-0.5,2.1
	c0,1.2,0.1,2,0.5,2.4c0.4,0.5,0.8,0.8,1.5,0.8c0.4,0,0.8-0.1,1.1-0.4C72.3,34.3,72.5,33.9,72.5,33.4L72.5,33.4z M75.5,27.8h1.5v3.5
	c0.4-0.7,0.9-1.1,1.7-1.1c0.7,0,1.1,0.1,1.5,0.5c0.4,0.4,0.5,1.1,0.5,2V36h-1.5v-3.5c0-0.9-0.4-1.5-1.1-1.5c-0.4,0-0.7,0.1-0.9,0.4
	c-0.3,0.3-0.3,0.8-0.3,1.5V36h-1.5V27.8L75.5,27.8z M82,27.8h1.6v1.5H82V27.8z M82.1,30.3h1.5V36h-1.5V30.3L82.1,30.3z M84.9,36
	v-8.2h1.5V36H84.9z M91.8,30.8v-3.1h1.5V36h-1.3v-0.9c-0.1,0.3-0.4,0.5-0.7,0.8c-0.3,0.1-0.7,0.3-1.1,0.3c-0.7,0-1.3-0.3-1.7-0.8
	c-0.4-0.5-0.7-1.2-0.7-2.1s0.3-1.6,0.7-2.3c0.4-0.5,0.9-0.9,1.7-0.9c0.3,0,0.5,0,0.8,0.1C91.3,30.4,91.5,30.6,91.8,30.8L91.8,30.8z
	 M89.3,33.4c0,0.7,0.1,1.1,0.3,1.5c0.3,0.3,0.5,0.5,0.9,0.5c0.4,0,0.7-0.1,0.9-0.5c0.3-0.3,0.4-0.8,0.4-1.6c0-0.7-0.1-1.2-0.3-1.5
	c-0.3-0.4-0.5-0.5-0.9-0.5s-0.7,0.1-0.9,0.5C89.4,32,89.3,32.6,89.3,33.4L89.3,33.4z M94.6,36v-5.7h1.5v0.9c0.3-0.4,0.5-0.7,0.8-0.9
	c0.3-0.1,0.5-0.3,0.8-0.3v1.6c-0.7,0-1.1,0.1-1.2,0.4c-0.3,0.3-0.4,0.7-0.4,1.2V36H94.6L94.6,36z M99.9,33.6c0,1.1,0.4,1.6,1.1,1.6
	c0.3,0,0.5-0.1,0.7-0.3c0.3-0.1,0.3-0.4,0.3-0.8h1.5c0,0.7-0.3,1.2-0.7,1.6c-0.4,0.4-1.1,0.5-1.7,0.5c-0.9,0-1.5-0.3-2-0.8
	c-0.4-0.5-0.7-1.2-0.7-2.1s0.3-1.7,0.7-2.3c0.5-0.5,1.1-0.8,2-0.8c0.8,0,1.3,0.3,1.9,0.8c0.4,0.5,0.7,1.2,0.7,2.3v0.4L99.9,33.6
	L99.9,33.6z M99.9,32.6h2.1c0-0.9-0.4-1.5-1.1-1.5c-0.3,0-0.5,0.1-0.8,0.4C100,31.8,99.9,32.2,99.9,32.6z M104.7,36v-5.7h1.5v0.9
	c0.3-0.7,0.9-1.1,1.7-1.1c0.7,0,1.1,0.1,1.5,0.5c0.4,0.4,0.5,0.9,0.5,1.7V36h-1.5v-3.3c0-1.1-0.4-1.6-1.1-1.6
	c-0.4,0-0.7,0.1-0.9,0.4c-0.3,0.3-0.3,0.7-0.3,1.3v3.1L104.7,36L104.7,36z M49.6,4.1h2.4v5.4c0,0.8,0.1,1.3,0.4,1.6
	c0.3,0.4,0.7,0.5,1.2,0.5c0.7,0,1.1-0.1,1.5-0.5c0.4-0.4,0.5-1.1,0.5-2.1V4.1h2.4V13h-2.4v-1.2c-0.1,0.5-0.5,0.8-0.9,1.2
	c-0.5,0.3-1.1,0.4-1.7,0.4c-1.1,0-1.9-0.3-2.4-0.9C50,12,49.7,11,49.7,9.8L49.6,4.1L49.6,4.1z M60.7,13.2v-9H63v1.3
	c0.5-1.1,1.5-1.6,2.8-1.6c0.9,0,1.7,0.3,2.3,0.8s0.8,1.5,0.8,2.8V13h-2.4V8c0-1.6-0.5-2.4-1.7-2.4c-0.7,0-1.1,0.3-1.5,0.7
	c0,0.4-0.3,1.1-0.3,2v4.9H60.7z M71.1,0.5h2.4v2.3h-2.4V0.5z M71.1,4.3h2.3v8.5h-2.3V4.3z M81.2,9.7h2.3c0,1.1-0.4,2-1.1,2.5
	S80.8,13,79.7,13c-1.3,0-2.3-0.4-3.1-1.2C76,11,75.6,10,75.6,8.5S76,6,76.7,5.2C77.5,4.4,78.4,4,79.7,4c1.1,0,1.9,0.3,2.5,0.8
	c0.7,0.5,0.9,1.3,1.1,2.5H81c0-1.2-0.5-1.7-1.5-1.7c-0.7,0-1.1,0.3-1.3,0.7c-0.3,0.5-0.4,1.2-0.4,2.1c0,2.1,0.7,3.1,1.7,3.1
	c0.5,0,0.9-0.1,1.1-0.4C81,10.8,81.2,10.2,81.2,9.7L81.2,9.7z M87,8.9c0,1.6,0.5,2.4,1.7,2.4c0.4,0,0.8-0.1,1.1-0.4
	c0.3-0.3,0.5-0.7,0.5-1.2h2.3c0,0.9-0.4,1.7-1.1,2.3c-0.7,0.5-1.6,0.8-2.8,0.8c-1.3,0-2.4-0.4-3.1-1.2c-0.7-0.8-1.1-1.9-1.1-3.2
	S85,5.8,85.7,5c0.8-0.8,1.7-1.2,3.1-1.2c1.2,0,2.1,0.4,2.8,1.1c0.7,0.8,1.1,1.9,1.1,3.3v0.5H87V8.9z M87.2,7.4h3.3
	c-0.1-1.5-0.7-2.1-1.6-2.1c-0.5,0-0.9,0.1-1.2,0.5C87.3,6.2,87.2,6.8,87.2,7.4z M93.3,3.9h1.6V2.5c0-0.9,0.3-1.5,0.7-1.9
	S96.7,0,97.8,0c0.3,0,0.7,0,1.2,0v1.5c-0.5,0-0.8,0-0.9,0c-0.3,0-0.5,0.1-0.7,0.4c-0.1,0.1-0.1,0.5-0.1,0.9v1.1h1.9v1.5h-1.9v7h-2.4
	V5.4h-1.6V3.9L93.3,3.9z M5.2,17.4c1.3-6.8,7.3-12,14.6-12s13.3,5.2,14.6,12h4.9C38,7.8,29.8,0.5,19.8,0.5S1.6,7.8,0.1,17.4H5.2
	L5.2,17.4z M34.4,22.6c-1.1,7-7.3,12.5-14.6,12.5S6.2,29.6,5.2,22.6h-5C1.3,32.4,9.6,40,19.7,40s18.5-7.6,19.5-17.4H34.4z
	 M27.5,22.6c-1.1,3.3-4.1,5.8-7.8,5.8c-4.5,0-8.1-3.7-8.1-8.1s3.7-8.1,8.1-8.1c3.5,0,6.5,2.3,7.7,5.3h3.7c-1.3-5-5.8-8.9-11.3-8.9
	c-6.5,0-11.7,5.2-11.7,11.7S13.3,32,19.8,32c5.7,0,10.4-4,11.4-9.3L27.5,22.6L27.5,22.6z"/>
</svg>
