<svg id="Layer_1" data-name="Layer 1" xmlns="http://www.w3.org/2000/svg" viewBox="0 0 205 48"><defs><style>.cls-1{fill:#ec1c24;}.cls-2{fill:#fff;}</style></defs><title>Untitled-1</title><polygon class="cls-1" points="4.95 4.81 11.38 17.65 0.5 30.03 4.95 4.81"/><path class="cls-2" d="M101.51,41.52H99.89l-.19-4h0l-1.75,4H96.29l-.62-5.66h1.59l.21,4h0l1.74-4h1.57l.18,4h0l1.81-4h1.64Z"/><path class="cls-2" d="M110.43,41.52h-1.62l-.2-4h0l-1.75,4h-1.63l-.62-5.66h1.58l.22,4h0l1.74-4h1.58l.17,4h0l1.82-4h1.64Z"/><path class="cls-2" d="M119.34,41.52h-1.61l-.2-4h0l-1.75,4h-1.63l-.63-5.66h1.59l.22,4h0l1.74-4h1.57l.18,4h0l1.82-4h1.64Z"/><path class="cls-2" d="M121.62,39.83h1.73L123,41.52h-1.73Z"/><path class="cls-2" d="M127.9,38.58l1.43,2.94h-1.64l-.82-1.86-1.51,1.86H123.6l2.63-3L125,35.86h1.66l.62,1.63,1.28-1.63h1.74Z"/><path class="cls-2" d="M131.17,35.86h1.49l-.18.8h0a2.38,2.38,0,0,1,2-.95,1.25,1.25,0,0,1,1.36,1,2.45,2.45,0,0,1,1.92-1c.88,0,1.72.46,1.72,1.43a5.35,5.35,0,0,1-.17,1l-.7,3.33h-1.55l.74-3.58a3.94,3.94,0,0,0,.05-.4.63.63,0,0,0-.68-.6c-.83,0-1.31.86-1.46,1.55l-.63,3h-1.57l.75-3.58a3.58,3.58,0,0,0,0-.4.62.62,0,0,0-.68-.6c-.83,0-1.31.86-1.45,1.55l-.64,3H130Z"/><path class="cls-2" d="M143.09,35.86h1.11l-.24,1h-1.1l-.58,2.81a1.44,1.44,0,0,0-.05.27c0,.4.3.41.53.41l.56,0-.27,1.2a7.66,7.66,0,0,1-1,.06c-.72,0-1.48-.23-1.48-1.15a3.21,3.21,0,0,1,.08-.54l.63-3h-1l.24-1h1l.35-1.71h1.56Z"/><path class="cls-2" d="M145.14,35.86h1.48l-.23,1,0,0a2.09,2.09,0,0,1,2-1.19,3.87,3.87,0,0,1,.48,0l-.32,1.51a3.65,3.65,0,0,0-.65-.1c-1.2,0-1.62.9-1.83,1.86l-.52,2.51H144Z"/><path class="cls-2" d="M148.71,37.58c.2-1.42,1.4-1.87,2.68-1.87,1,0,2.35.22,2.35,1.49a4.63,4.63,0,0,1-.12.95l-.5,2.27a3.25,3.25,0,0,0-.08.77,1,1,0,0,0,.06.33h-1.56V41a2.31,2.31,0,0,1-1.73.71c-1.23,0-1.83-.7-1.83-1.49,0-1.08.82-1.76,2.16-1.92s2.16-.1,2.16-.82c0-.56-.59-.69-1-.69a1.06,1.06,0,0,0-1.15.83ZM152,38.81a3,3,0,0,1-1.31.27c-.59.05-1.15.21-1.15.92,0,.42.41.63.85.63,1,0,1.28-.66,1.46-1.28Z"/><path class="cls-2" d="M158.13,40.82l0,0a1.87,1.87,0,0,1-1.7.87,2,2,0,0,1-2.15-2.23c0-1.86,1-3.73,3.08-3.73a1.62,1.62,0,0,1,1.59.91h0l.62-2.91h1.56l-1.65,7.81H158Zm-2.32-1.58a1.12,1.12,0,0,0,1.11,1.26c1.15,0,1.7-1.42,1.7-2.39,0-.73-.36-1.23-1.11-1.23C156.34,36.88,155.81,38.25,155.81,39.24Z"/><path class="cls-2" d="M161.75,35.86h1.57l-1.21,5.66h-1.56Zm1.74-.87h-1.56l.28-1.28h1.57Z"/><path class="cls-2" d="M164.28,35.86h1.49l-.18.79h0a2.45,2.45,0,0,1,2-.94c1.08,0,1.66.54,1.66,1.52a7,7,0,0,1-.17,1l-.7,3.32h-1.55l.69-3.32a4.1,4.1,0,0,0,.1-.69c0-.33-.39-.57-.75-.57-.94,0-1.42.78-1.58,1.57l-.64,3H163.1Z"/><path class="cls-2" d="M175.09,41.22c-.36,1.72-1.25,2.44-3.12,2.44-1.15,0-2.42-.49-2.42-1.85h1.56c0,.57.51.81,1,.81,1,0,1.27-.86,1.58-2l0,0a1.86,1.86,0,0,1-1.56.8A2.1,2.1,0,0,1,170,39.12c0-1.65,1-3.41,2.85-3.41a1.69,1.69,0,0,1,1.73,1h0l.18-.87h1.48ZM171.5,39c0,.67.33,1.25,1.05,1.25,1.12,0,1.65-1.19,1.65-2.15,0-.72-.36-1.23-1.11-1.23C172.05,36.88,171.5,38.11,171.5,39Z"/><path class="cls-2" d="M176.66,39.83h1.73L178,41.52H176.3Z"/><path class="cls-2" d="M183.77,37.82c0-.67-.36-.94-1-.94-1.19,0-1.59,1.42-1.59,2.4,0,.67.28,1.22,1.07,1.22a1.33,1.33,0,0,0,1.26-1H185a2.92,2.92,0,0,1-2.92,2.22,2.21,2.21,0,0,1-2.51-2.43,3.22,3.22,0,0,1,3.19-3.53c1.38,0,2.51.61,2.54,2.11Z"/><path class="cls-2" d="M188.93,35.71c1.55,0,2.63.77,2.63,2.4a3.27,3.27,0,0,1-3.29,3.56,2.29,2.29,0,0,1-2.59-2.44A3.28,3.28,0,0,1,188.93,35.71Zm-.58,4.79c1.16,0,1.66-1.42,1.66-2.37,0-.76-.33-1.25-1.14-1.25-1.13,0-1.64,1.4-1.64,2.35A1.15,1.15,0,0,0,188.35,40.5Z"/><path class="cls-2" d="M193.11,35.86h1.49l-.18.8h0a2.38,2.38,0,0,1,2-.95,1.26,1.26,0,0,1,1.37,1,2.41,2.41,0,0,1,1.91-1c.89,0,1.72.46,1.72,1.43a6.19,6.19,0,0,1-.16,1l-.7,3.33H199l.75-3.58a3.58,3.58,0,0,0,0-.4.62.62,0,0,0-.68-.6c-.83,0-1.31.86-1.45,1.55l-.64,3h-1.56l.74-3.58a2.28,2.28,0,0,0,.05-.4.63.63,0,0,0-.68-.6c-.83,0-1.31.86-1.46,1.55l-.63,3h-1.55Z"/><polygon class="cls-2" points="23.24 10.4 20.68 4.84 11.9 4.84 17.3 15.97 23.24 10.4"/><path class="cls-2" d="M44.05,4.84H28.38L6.93,30h8.55l5.6-6.69L24.17,30H38.89l2-11.22L42.66,25,48,18.56ZM32,28,27.15,17.65,35.63,7.28Z"/><polygon class="cls-2" points="151.82 4.89 146.95 29.98 153.89 29.98 158.75 4.89 151.82 4.89"/><polygon class="cls-2" points="175.34 4.89 172.69 19.36 166.91 4.89 160.31 4.89 155.45 29.98 162.03 29.98 164.69 15.69 170.53 29.98 176.96 29.98 181.82 4.89 175.34 4.89"/><polygon class="cls-2" points="83.9 10.66 83.91 10.65 89.95 4.89 85.02 4.89 85.02 4.89 57.44 4.84 43.12 26.58 50.3 26.58 55.76 18.07 53.65 30.01 60.9 30.01 64.26 10.95 69.92 10.95 66.27 29.98 73.2 29.98 76.86 10.95 83.59 10.95 83.9 10.66"/><polygon class="cls-2" points="201.5 29.98 202.78 23.42 197.64 29.98 201.5 29.98"/><path class="cls-2" d="M191.53,21.18h5.24c-.93,2.3-2.53,3.3-5.17,3.3-4,0-4.5-3.61-4.52-5.16a10.34,10.34,0,0,1,2.49-7.23,5.58,5.58,0,0,1,4.11-1.7c3.31,0,3.84,1.68,3.94,3.15l0,.81h6.83l0-.89c-.09-5.62-4.28-9.12-10.91-9.12a12.56,12.56,0,0,0-9.2,3.75,15.7,15.7,0,0,0-4.17,11.26c.13,7,4.39,11.18,11.41,11.18a7.89,7.89,0,0,0,5.06-1.73V29l6.15-5.86,1.47-7.52H192.63Z"/><path class="cls-2" d="M138.22,4.89h-9.15l-4.14,21.36L121,4.89h-6.49L102,26.76c0-.13,0-.26,0-.38,0-.76,0-1.56.05-2.29s0-1.27,0-1.77a5.49,5.49,0,0,0-1.32-3.87,7,7,0,0,0,4.07-6.59c-.08-4.62-2.75-7-7.93-7H90l-6.55,8.37L80.19,30h6.9l1.77-9.12H93c2.12,0,2.52.66,2.54,1.95,0,.76,0,1.53-.09,2.3s-.1,1.64-.09,2.44a7.9,7.9,0,0,0,.28,1.77l.17.66h11.78l2.85-5.2h7.47l.84,5.2h7.43l6.16-6.19L134.83,11H138c2.85,0,4.27,1.57,4.32,4.8A8.53,8.53,0,0,1,140.1,22a6.67,6.67,0,0,1-4.91,1.92h-2.76L127.94,30H135c4.21,0,7.74-1.32,10.2-3.83,2.64-2.69,4-6.6,3.92-11.31C149,8.52,145.05,4.89,138.22,4.89Zm-40.88,9.4a5.33,5.33,0,0,1-3.74,1.16H89.91l.93-4.83H95c2.25,0,2.94.47,3,2A2.18,2.18,0,0,1,97.34,14.29Zm16,4.92,3-5.71.81,5.71Z"/></svg>