<?xml version="1.0" encoding="UTF-8" standalone="no"?>
<!DOCTYPE svg PUBLIC "-//W3C//DTD SVG 1.1//EN" "http://www.w3.org/Graphics/SVG/1.1/DTD/svg11.dtd">
<svg width="100%" height="100%" viewBox="0 0 26 25" version="1.1" xmlns="http://www.w3.org/2000/svg" xmlns:xlink="http://www.w3.org/1999/xlink" xml:space="preserve" xmlns:serif="http://www.serif.com/" style="fill-rule:evenodd;clip-rule:evenodd;stroke-linejoin:round;stroke-miterlimit:2;">
    <g transform="matrix(0.769612,0,0,0.769612,-1194.98,-106.746)">
        <path d="M1571.34,160.113C1569.41,161.49 1567.05,162.299 1564.5,162.299C1557.99,162.299 1552.7,157.012 1552.7,150.5C1552.7,143.988 1557.99,138.701 1564.5,138.701C1571.01,138.701 1576.3,143.988 1576.3,150.5C1576.3,153.175 1575.41,155.643 1573.9,157.622L1585.14,166.159C1585.5,166.484 1585.53,167.038 1585.2,167.395L1582.27,170.612C1581.95,170.969 1581.39,170.995 1581.04,170.669L1571.34,160.113ZM1564.5,141.299C1559.42,141.299 1555.3,145.422 1555.3,150.5C1555.3,155.578 1559.42,159.701 1564.5,159.701C1569.58,159.701 1573.7,155.578 1573.7,150.5C1573.7,145.422 1569.58,141.299 1564.5,141.299Z" style="fill:rgb(150,150,150);"/>
    </g>
</svg>
