<?xml version="1.0" encoding="UTF-8"?><svg id="_レイヤー_2" xmlns="http://www.w3.org/2000/svg" viewBox="0 0 1984.14 1951.81"><defs><style>.cls-1{fill:#fff;fill-rule:evenodd;}</style></defs><g id="_レイヤー_1-2"><path class="cls-1" d="M1129.99,1298.03c-117,83.48-260.06,132.52-414.65,132.52C320.69,1430.55,0,1110.04,0,715.28S320.69,0,715.34,0s715.34,320.51,715.34,715.28c0,162.16-53.95,311.78-145.49,431.75l681.39,517.53c21.82,19.7,23.64,53.29,3.63,74.93l-177.62,195.02c-19.4,21.64-53.35,23.22-74.56,3.46l-588.04-639.92ZM715.34,157.49c-307.96,0-557.72,249.94-557.72,557.78s249.76,557.78,557.72,557.78,557.72-249.94,557.72-557.78S1023.3,157.49,715.34,157.49Z"/></g></svg>