<svg width="12" height="13" viewBox="0 0 12 13" fill="none" xmlns="http://www.w3.org/2000/svg">
<rect y="0.816895" width="12" height="12" rx="6" fill="#222222"/>
<path d="M5.37493 8.429V8.38639C5.37967 7.93421 5.42702 7.57436 5.51698 7.30684C5.60694 7.03932 5.73478 6.8227 5.9005 6.65698C6.06622 6.49126 6.26508 6.33856 6.49709 6.19889C6.63677 6.11366 6.76224 6.01304 6.87351 5.89704C6.98478 5.77867 7.07238 5.64254 7.1363 5.48866C7.20258 5.33478 7.23573 5.16432 7.23573 4.97729C7.23573 4.74529 7.18128 4.54406 7.07238 4.3736C6.96348 4.20315 6.81788 4.07176 6.63559 3.97943C6.4533 3.8871 6.25088 3.84093 6.02834 3.84093C5.83421 3.84093 5.64719 3.88118 5.46726 3.96167C5.28734 4.04216 5.13701 4.16882 5.01627 4.34164C4.89553 4.51446 4.82569 4.74055 4.80675 5.01991H3.91187C3.9308 4.61745 4.03497 4.27299 4.22437 3.98653C4.41613 3.70007 4.66826 3.48108 4.98076 3.32957C5.29562 3.17805 5.64482 3.10229 6.02834 3.10229C6.44501 3.10229 6.80723 3.18515 7.11499 3.35087C7.42512 3.51659 7.66423 3.74387 7.83232 4.03269C8.00277 4.32152 8.088 4.65059 8.088 5.01991C8.088 5.28033 8.04776 5.51588 7.96726 5.72658C7.88914 5.93729 7.7755 6.1255 7.62635 6.29122C7.47957 6.45694 7.30202 6.60372 7.09368 6.73156C6.88535 6.86176 6.71845 6.99908 6.59297 7.14349C6.4675 7.28553 6.37635 7.4548 6.31954 7.6513C6.26272 7.8478 6.23194 8.09283 6.22721 8.38639V8.429H5.37493ZM5.82948 10.5313C5.65429 10.5313 5.50396 10.4685 5.37848 10.3431C5.25301 10.2176 5.19027 10.0673 5.19027 9.89207C5.19027 9.71688 5.25301 9.56655 5.37848 9.44107C5.50396 9.3156 5.65429 9.25286 5.82948 9.25286C6.00467 9.25286 6.155 9.3156 6.28047 9.44107C6.40595 9.56655 6.46868 9.71688 6.46868 9.89207C6.46868 10.0081 6.43909 10.1146 6.37991 10.2117C6.32309 10.3087 6.24615 10.3869 6.14908 10.446C6.05438 10.5029 5.94785 10.5313 5.82948 10.5313Z" fill="white"/>
</svg>
