<?xml version="1.0" encoding="UTF-8"?>
<svg id="a" data-name="レイヤー 1" xmlns="http://www.w3.org/2000/svg" viewBox="0 0 436.38 580.97">
  <defs>
    <style>
      .c {
        fill: #fff;
        stroke-width: 0px;
      }
    </style>
  </defs>
  <g id="b" data-name="SVGRepo iconCarrier">
    <path class="c" d="M436.38,256.59v291.03c-.05,18.4-14.95,33.3-33.35,33.35H33.35c-18.4-.05-33.3-14.95-33.35-33.35v-291.03c.05-18.4,14.95-33.3,33.35-33.35h36.04v-74.44C69.39,66.62,136.01,0,218.19,0s148.8,66.62,148.8,148.8v74.44h36.04c18.4.05,33.3,14.95,33.35,33.35ZM320.34,148.8c0-56.41-45.73-102.15-102.14-102.15-56.41,0-102.15,45.73-102.15,102.14h0v74.45h204.29v-74.44ZM264.84,363.66c0-25.77-20.89-46.65-46.65-46.65-25.77,0-46.65,20.89-46.65,46.65,0,18.02,10.37,34.42,26.65,42.15v77.85c0,11.05,8.97,19.99,20.01,19.99,11.04,0,19.98-8.95,19.99-19.99v-77.85c16.28-7.72,26.65-24.13,26.65-42.15h0Z"/>
  </g>
</svg>