<svg width="13" height="12" viewBox="0 0 13 12" fill="none" xmlns="http://www.w3.org/2000/svg">
<rect x="0.5" width="12" height="12" rx="6" fill="white"/>
<path d="M5.87506 7.61223V7.56961C5.87979 7.11744 5.92714 6.75759 6.0171 6.49007C6.10706 6.22255 6.2349 6.00593 6.40062 5.84021C6.56634 5.67449 6.76521 5.52179 6.99721 5.38211C7.13689 5.29689 7.26237 5.19627 7.37364 5.08027C7.4849 4.9619 7.5725 4.82577 7.63642 4.67189C7.70271 4.518 7.73585 4.34755 7.73585 4.16052C7.73585 3.92851 7.6814 3.72728 7.5725 3.55683C7.4636 3.38637 7.318 3.25498 7.13571 3.16265C6.95342 3.07032 6.751 3.02416 6.52846 3.02416C6.33434 3.02416 6.14731 3.0644 5.96739 3.1449C5.78746 3.22539 5.63713 3.35205 5.51639 3.52487C5.39565 3.69769 5.32581 3.92378 5.30687 4.20314H4.41199C4.43093 3.80067 4.53509 3.45621 4.72449 3.16976C4.91625 2.8833 5.16838 2.66431 5.48088 2.51279C5.79575 2.36128 6.14494 2.28552 6.52846 2.28552C6.94513 2.28552 7.30735 2.36838 7.61511 2.5341C7.92525 2.69982 8.16436 2.92709 8.33244 3.21592C8.5029 3.50475 8.58812 3.83382 8.58812 4.20314C8.58812 4.46355 8.54788 4.69911 8.46739 4.90981C8.38926 5.12051 8.27562 5.30872 8.12648 5.47444C7.9797 5.64016 7.80214 5.78694 7.59381 5.91478C7.38547 6.04499 7.21857 6.1823 7.0931 6.32672C6.96762 6.46876 6.87648 6.63803 6.81966 6.83453C6.76284 7.03102 6.73206 7.27605 6.72733 7.56961V7.61223H5.87506ZM6.3296 9.7145C6.15441 9.7145 6.00408 9.65176 5.87861 9.52629C5.75313 9.40082 5.6904 9.25049 5.6904 9.0753C5.6904 8.90011 5.75313 8.74977 5.87861 8.6243C6.00408 8.49883 6.15441 8.43609 6.3296 8.43609C6.50479 8.43609 6.65512 8.49883 6.7806 8.6243C6.90607 8.74977 6.96881 8.90011 6.96881 9.0753C6.96881 9.1913 6.93921 9.29783 6.88003 9.3949C6.82321 9.49196 6.74627 9.57009 6.6492 9.62927C6.55451 9.68609 6.44797 9.7145 6.3296 9.7145Z" fill="#222222"/>
</svg>
